<?xml version="1.0" standalone="no"?>
<!DOCTYPE svg PUBLIC "-//W3C//DTD SVG 20010904//EN"
 "http://www.w3.org/TR/2001/REC-SVG-20010904/DTD/svg10.dtd">
<svg version="1.0" xmlns="http://www.w3.org/2000/svg"
 width="4267.000000pt" height="4267.000000pt" viewBox="0 0 4267.000000 4267.000000"
 preserveAspectRatio="xMidYMid meet">

<g transform="translate(0.000000,4267.000000) scale(0.100000,-0.100000)"
fill="#000000" stroke="none">
<path d="M24410 37100 c-47 -4 -98 -13 -113 -19 -16 -6 -40 -11 -55 -11 -15 0
-49 -14 -77 -30 -27 -16 -57 -30 -66 -30 -8 0 -30 -16 -49 -35 -19 -19 -55
-42 -83 -51 -36 -12 -54 -25 -66 -47 -9 -16 -45 -57 -81 -91 -130 -122 -168
-163 -175 -194 -4 -20 -25 -48 -56 -76 -27 -24 -53 -56 -59 -70 -5 -14 -21
-32 -35 -38 -14 -6 -46 -41 -70 -77 -24 -36 -57 -79 -74 -95 -17 -17 -31 -40
-31 -53 0 -13 -15 -40 -34 -60 -33 -38 -97 -163 -110 -218 -4 -17 -28 -61 -54
-99 -38 -55 -47 -77 -47 -111 0 -28 -9 -55 -26 -81 -14 -22 -33 -62 -43 -90
-9 -28 -30 -72 -46 -98 -69 -108 -92 -172 -117 -316 -3 -19 -19 -50 -35 -68
-18 -22 -28 -44 -28 -66 0 -22 -8 -40 -26 -57 -32 -29 -54 -71 -54 -100 0 -12
-13 -37 -30 -56 -20 -23 -30 -44 -30 -67 0 -19 -10 -47 -25 -67 -13 -19 -32
-44 -41 -56 -17 -24 -19 -48 -9 -99 6 -28 3 -33 -28 -52 -33 -19 -35 -23 -34
-69 2 -39 -3 -57 -24 -84 -34 -45 -40 -63 -45 -137 -7 -115 -47 -157 -147
-154 -33 1 -83 -5 -110 -13 -28 -8 -68 -15 -89 -15 -21 0 -60 -11 -86 -24 -26
-13 -69 -27 -97 -31 -27 -4 -72 -18 -100 -32 -36 -19 -68 -26 -116 -28 -36 -1
-78 -9 -95 -17 -16 -9 -54 -21 -84 -28 -30 -7 -93 -28 -140 -46 -47 -19 -93
-34 -102 -34 -10 0 -41 -11 -70 -24 -29 -13 -73 -30 -97 -37 -24 -7 -64 -26
-89 -42 -26 -16 -62 -30 -82 -32 -20 -1 -105 -37 -205 -87 -93 -48 -181 -89
-195 -93 -14 -4 -32 -13 -40 -20 -8 -7 -28 -17 -45 -22 -38 -13 -162 -103
-234 -170 -51 -48 -59 -52 -92 -47 -31 5 -45 0 -105 -41 -38 -26 -99 -62 -137
-81 -37 -18 -80 -43 -96 -57 -16 -13 -42 -29 -58 -36 -17 -7 -35 -23 -41 -37
-7 -13 -19 -24 -27 -24 -21 0 -159 -74 -204 -109 -20 -15 -67 -44 -106 -64
-38 -21 -97 -61 -130 -91 -33 -29 -76 -61 -95 -71 -19 -9 -44 -26 -55 -36 -40
-37 -91 -76 -130 -99 -41 -24 -135 -114 -135 -129 0 -5 -13 -11 -29 -14 -32
-7 -88 -71 -100 -115 -6 -20 -15 -28 -39 -32 -44 -7 -169 -120 -180 -163 -5
-22 -15 -33 -29 -35 -25 -4 -87 26 -129 61 -16 13 -44 29 -61 35 -18 6 -52 24
-75 40 -52 35 -122 72 -140 72 -14 1 -48 17 -208 102 -58 30 -156 74 -219 97
-62 23 -128 53 -145 66 -17 13 -53 29 -79 35 -26 5 -65 22 -86 35 -20 14 -62
34 -93 45 -30 10 -97 38 -149 60 -52 23 -134 50 -184 60 -107 22 -134 32 -183
65 -20 14 -49 25 -64 25 -15 0 -55 10 -89 21 -34 12 -89 28 -123 35 -33 8
-101 23 -151 34 -107 25 -242 43 -305 41 -25 0 -77 4 -116 10 -52 8 -80 8
-105 0 -19 -6 -91 -15 -161 -21 -70 -6 -142 -17 -160 -24 -18 -8 -62 -17 -98
-21 -36 -3 -87 -15 -115 -25 -27 -10 -75 -24 -105 -31 -88 -19 -199 -77 -207
-107 -5 -23 -9 -24 -60 -19 l-55 6 -107 -101 c-101 -97 -191 -193 -191 -206 0
-3 10 -16 22 -29 17 -18 19 -26 10 -35 -9 -9 -18 -8 -37 2 -33 18 -41 9 -60
-64 -8 -31 -26 -74 -40 -94 -16 -23 -25 -51 -25 -74 0 -20 -9 -60 -20 -88 -11
-28 -20 -72 -20 -98 0 -26 -8 -69 -17 -95 -15 -41 -15 -52 -4 -80 23 -57 24
-75 2 -121 -24 -48 -23 -63 10 -154 15 -40 18 -67 13 -104 -7 -48 -6 -51 30
-84 42 -38 47 -77 16 -117 -26 -33 -25 -37 10 -82 31 -39 42 -106 20 -120 -22
-13 -10 -44 17 -47 37 -4 52 -45 35 -92 -10 -27 -9 -41 3 -76 8 -23 15 -52 15
-63 0 -11 16 -37 36 -59 30 -33 34 -44 28 -66 -13 -46 -7 -73 22 -103 25 -27
29 -37 27 -90 -1 -51 2 -61 20 -71 33 -17 38 -29 31 -76 -6 -40 -4 -47 29 -80
24 -26 39 -55 50 -97 8 -33 36 -108 61 -167 25 -59 46 -116 46 -125 0 -10 14
-38 30 -63 16 -25 30 -58 30 -74 0 -16 11 -41 26 -58 37 -45 74 -123 74 -156
0 -34 14 -49 50 -54 21 -2 25 -8 23 -33 -1 -16 -4 -41 -8 -55 -5 -20 3 -36 40
-80 26 -30 57 -75 71 -100 14 -25 36 -63 49 -85 14 -22 24 -47 24 -55 -2 -31
2 -40 51 -101 27 -34 52 -77 56 -96 3 -18 10 -36 15 -39 5 -3 9 -18 9 -35 0
-19 12 -42 37 -70 34 -37 36 -43 26 -70 -6 -16 -7 -29 -2 -29 18 0 49 -40 49
-63 0 -13 -20 -50 -45 -82 -25 -32 -48 -70 -51 -84 -2 -14 -11 -49 -19 -77 -8
-28 -15 -76 -15 -106 0 -45 -6 -63 -30 -99 -16 -24 -30 -54 -30 -66 0 -31 -34
-63 -65 -63 -15 0 -40 -7 -57 -16 -27 -14 -38 -15 -65 -5 -28 11 -44 8 -125
-19 -51 -17 -103 -38 -115 -46 -12 -8 -28 -14 -36 -14 -7 0 -35 -14 -62 -31
-32 -20 -55 -29 -70 -25 -31 8 -82 -11 -133 -50 -34 -26 -50 -32 -72 -27 -21
4 -52 -6 -115 -36 -47 -22 -92 -41 -98 -41 -7 0 -29 -11 -49 -25 -20 -14 -63
-34 -95 -46 -32 -12 -84 -39 -116 -61 -32 -21 -63 -38 -69 -38 -5 0 -35 -18
-67 -40 -31 -22 -61 -40 -66 -40 -6 -1 -46 -23 -90 -50 -44 -28 -98 -59 -120
-69 -22 -10 -57 -35 -78 -55 -20 -20 -46 -36 -56 -36 -11 0 -23 -5 -27 -11 -3
-6 -26 -19 -50 -30 -29 -12 -52 -31 -65 -54 -13 -21 -32 -38 -48 -42 -14 -3
-52 -28 -84 -55 -32 -26 -65 -48 -72 -48 -7 0 -30 -18 -52 -39 -21 -21 -54
-45 -73 -53 -19 -8 -79 -58 -132 -111 -54 -52 -107 -98 -118 -102 -11 -4 -27
-20 -36 -36 -10 -19 -25 -32 -45 -36 -19 -3 -44 -23 -70 -55 -23 -27 -56 -55
-73 -62 -51 -22 -114 -73 -140 -114 -15 -25 -50 -54 -97 -83 -41 -24 -108 -78
-149 -120 -41 -42 -87 -83 -102 -92 -14 -9 -29 -25 -32 -35 -4 -10 -22 -26
-41 -35 -22 -10 -47 -36 -66 -67 -17 -27 -36 -50 -42 -50 -6 0 -36 -24 -66
-54 -104 -101 -216 -213 -248 -247 -17 -19 -44 -42 -58 -53 -15 -10 -31 -32
-37 -48 -15 -41 -46 -51 -108 -32 -41 12 -53 21 -69 52 -22 41 -296 323 -342
351 -16 10 -52 39 -81 65 -141 126 -295 255 -362 303 -21 15 -74 60 -118 100
-43 39 -98 80 -121 91 -23 11 -51 30 -62 42 -23 26 -248 176 -313 209 -24 12
-63 37 -88 56 -26 20 -57 35 -72 35 -15 0 -49 16 -76 35 -27 19 -57 35 -65 35
-9 0 -39 15 -66 33 -28 19 -66 37 -86 41 -20 3 -54 19 -76 35 -71 51 -402 181
-462 181 -9 0 -38 11 -65 25 -27 14 -58 25 -69 25 -10 0 -66 16 -123 35 -57
19 -116 35 -131 35 -15 0 -50 7 -77 15 -27 8 -72 16 -100 16 -28 1 -71 7 -96
15 -56 16 -389 33 -530 27 -58 -2 -142 -3 -187 -3 -59 1 -91 -4 -114 -16 -26
-13 -47 -15 -110 -10 -57 5 -91 3 -130 -8 -29 -9 -69 -16 -88 -16 -20 0 -58
-7 -85 -15 -27 -8 -65 -15 -85 -15 -20 0 -56 -10 -81 -21 -24 -11 -63 -21 -85
-23 -25 -2 -66 -17 -101 -38 -33 -19 -81 -38 -107 -41 -26 -4 -67 -18 -90 -31
-23 -13 -60 -29 -82 -36 -22 -7 -57 -25 -77 -41 -20 -16 -49 -29 -63 -29 -31
0 -61 -14 -95 -45 -14 -13 -41 -27 -61 -33 -36 -10 -193 -98 -264 -149 -22
-16 -67 -44 -100 -63 -33 -19 -81 -55 -106 -81 -26 -26 -63 -55 -83 -63 -20
-8 -71 -50 -114 -92 -42 -43 -100 -92 -128 -110 -56 -36 -224 -186 -414 -370
-69 -67 -168 -162 -220 -212 -82 -79 -95 -96 -95 -124 0 -24 -6 -35 -24 -44
-13 -7 -30 -26 -37 -43 -7 -17 -17 -31 -23 -31 -22 0 -75 -57 -93 -99 -11 -25
-31 -61 -45 -79 -63 -84 -193 -286 -199 -310 -12 -49 -43 -100 -74 -122 -35
-25 -45 -55 -31 -92 9 -25 6 -30 -29 -58 -31 -24 -42 -41 -46 -71 -4 -22 -20
-57 -35 -79 -16 -22 -29 -44 -29 -49 0 -4 -9 -30 -21 -56 -15 -33 -19 -57 -14
-81 5 -28 1 -38 -17 -57 -50 -48 -52 -54 -28 -86 22 -32 18 -53 -15 -81 -11
-9 -14 -22 -9 -47 5 -27 2 -41 -16 -65 -17 -23 -20 -37 -15 -61 10 -46 5 -260
-10 -373 -6 -52 -4 -66 15 -103 12 -24 19 -51 17 -60 -3 -9 -13 -36 -22 -60
-15 -42 -15 -48 1 -84 15 -32 16 -44 6 -71 -17 -47 -15 -61 14 -96 24 -28 26
-37 21 -91 -3 -41 -1 -72 9 -95 8 -18 14 -43 14 -56 0 -12 18 -58 41 -101 37
-71 40 -81 29 -108 -15 -35 1 -85 30 -94 21 -7 40 -54 40 -101 0 -25 7 -39 30
-55 39 -29 43 -43 23 -84 -15 -31 -15 -36 1 -59 10 -16 26 -26 40 -26 33 0 44
-18 52 -84 6 -53 10 -59 52 -89 33 -24 52 -48 73 -94 15 -34 37 -67 49 -73 12
-6 28 -27 36 -45 7 -18 35 -51 61 -72 27 -21 67 -57 90 -80 23 -24 48 -43 55
-43 8 0 42 -26 77 -58 59 -54 246 -172 273 -172 7 0 41 -18 77 -39 36 -22 87
-46 113 -55 25 -8 78 -31 117 -51 49 -25 77 -34 94 -30 15 4 35 1 49 -8 60
-38 262 -97 331 -97 18 0 57 -8 87 -16 48 -15 101 -19 315 -25 93 -2 414 12
460 21 28 5 104 21 170 35 66 14 135 25 153 25 18 0 49 7 70 16 20 8 71 27
112 41 41 14 103 38 138 54 35 16 68 29 73 29 16 0 210 104 290 156 176 113
219 145 309 228 52 48 143 137 201 197 79 82 110 108 123 103 16 -6 56 -72 56
-94 0 -6 14 -39 31 -73 16 -34 35 -82 40 -108 8 -37 16 -50 37 -58 15 -7 37
-26 49 -43 17 -25 20 -36 11 -57 -9 -24 -5 -30 40 -71 36 -34 52 -57 62 -93
11 -39 19 -50 46 -62 32 -13 94 -86 94 -111 0 -29 267 -274 298 -274 12 0 25
-6 29 -14 4 -8 28 -23 53 -35 25 -12 67 -42 95 -66 49 -43 49 -44 37 -77 -6
-19 -12 -50 -12 -69 0 -19 -9 -60 -20 -92 -11 -31 -20 -76 -20 -100 0 -25 -7
-64 -15 -88 -10 -28 -15 -72 -14 -119 2 -43 -3 -84 -9 -97 -7 -12 -12 -35 -11
-50 0 -15 -4 -86 -11 -158 -6 -71 -8 -154 -5 -182 4 -29 2 -67 -4 -85 -5 -18
-15 -64 -21 -103 -6 -38 -16 -94 -22 -123 -11 -50 -10 -54 15 -80 15 -16 27
-33 27 -39 0 -6 -16 -30 -35 -53 -19 -23 -35 -51 -35 -62 0 -11 16 -34 35 -51
43 -38 44 -50 5 -77 -32 -23 -37 -40 -18 -69 9 -15 9 -28 -1 -59 -16 -48 -10
-69 24 -82 24 -9 37 -50 16 -50 -5 0 -19 -21 -31 -47 -19 -41 -21 -52 -10 -85
6 -22 8 -58 5 -81 -6 -37 -3 -45 19 -64 32 -28 32 -38 1 -67 -32 -29 -32 -49
0 -70 32 -21 32 -36 0 -66 -31 -29 -32 -71 -3 -118 20 -32 20 -40 10 -106 -8
-55 -8 -82 3 -126 35 -144 36 -151 23 -187 -12 -32 -11 -35 20 -64 18 -16 32
-34 32 -38 0 -4 -11 -18 -25 -31 -35 -33 -32 -58 9 -75 47 -20 51 -30 26 -69
-17 -28 -19 -44 -15 -93 4 -32 12 -76 20 -98 15 -44 26 -124 29 -196 1 -38 7
-51 34 -77 35 -33 37 -38 22 -77 -8 -22 -6 -32 10 -52 25 -32 25 -55 0 -78
-30 -27 -24 -48 18 -70 l37 -20 0 -85 c1 -110 -1 -104 40 -144 38 -38 44 -66
20 -86 -24 -20 -18 -47 16 -70 28 -21 30 -26 24 -62 -7 -38 -5 -43 32 -77 49
-44 78 -127 68 -195 -7 -41 -5 -45 25 -67 29 -22 61 -78 100 -177 7 -17 24
-38 39 -45 24 -11 26 -18 29 -80 3 -61 5 -67 27 -73 18 -4 26 -16 35 -54 8
-32 29 -70 60 -109 29 -36 56 -84 66 -116 12 -36 26 -61 43 -71 38 -24 61 -56
61 -85 0 -17 15 -43 40 -70 25 -28 40 -54 40 -70 0 -36 35 -77 68 -81 20 -2
32 -13 47 -44 11 -22 36 -60 54 -84 19 -23 42 -55 50 -70 36 -64 72 -110 107
-136 20 -16 50 -41 66 -56 17 -15 34 -28 38 -28 4 0 12 -13 18 -28 6 -19 48
-56 131 -116 67 -49 126 -97 132 -107 5 -11 28 -28 51 -40 23 -12 56 -36 73
-55 18 -19 39 -34 46 -34 18 -1 51 -29 74 -63 11 -17 47 -41 90 -62 40 -19 88
-47 107 -63 18 -16 62 -39 97 -52 36 -13 80 -37 99 -54 27 -23 42 -29 72 -28
30 2 46 -4 72 -26 18 -15 53 -34 78 -41 25 -7 68 -26 96 -42 35 -19 66 -29 95
-29 24 -1 55 -7 69 -15 14 -8 39 -14 55 -15 17 0 44 -9 60 -20 20 -13 47 -20
81 -20 31 0 71 -9 100 -22 84 -37 247 -58 494 -63 91 -2 184 -7 207 -10 23 -3
59 -2 80 4 21 5 112 15 203 22 121 8 175 16 201 30 19 9 63 21 97 25 55 6 66
4 124 -25 93 -46 127 -72 136 -106 8 -27 13 -30 48 -30 35 0 39 -3 42 -28 2
-18 13 -32 32 -42 15 -8 41 -36 57 -62 15 -26 48 -67 73 -92 25 -25 56 -68 69
-95 15 -30 37 -56 58 -68 44 -27 67 -70 58 -114 -5 -30 -2 -37 28 -64 19 -16
40 -45 47 -62 7 -18 32 -51 57 -73 l44 -41 -17 -31 c-17 -29 -17 -32 -1 -57
11 -15 27 -26 40 -26 13 0 31 -6 42 -13 16 -12 17 -23 11 -80 -6 -65 -6 -66
22 -81 20 -10 32 -28 41 -57 7 -24 26 -59 42 -78 20 -25 29 -46 29 -73 0 -52
13 -80 74 -161 45 -61 54 -80 58 -127 4 -41 11 -58 27 -70 88 -61 104 -88 79
-131 -12 -18 -9 -23 19 -47 17 -15 43 -46 57 -69 14 -23 34 -47 45 -53 11 -5
31 -34 44 -64 15 -32 40 -65 62 -82 42 -32 55 -45 89 -89 13 -17 54 -46 90
-65 37 -19 78 -49 92 -67 14 -18 32 -33 40 -33 19 0 73 -27 99 -50 11 -9 43
-25 70 -35 28 -10 58 -27 68 -37 26 -26 224 -118 255 -118 15 0 54 -13 87 -28
46 -22 82 -30 152 -36 51 -4 107 -13 125 -21 37 -15 132 -13 291 5 194 23 329
55 408 95 15 8 44 15 65 15 20 0 53 9 73 19 20 11 56 26 81 34 195 66 276 100
361 153 166 102 207 133 314 234 103 98 143 122 168 102 6 -6 25 -35 42 -66
27 -50 29 -58 18 -87 -14 -37 -3 -59 27 -59 26 0 60 -47 60 -84 0 -33 36 -93
83 -139 25 -24 28 -33 22 -66 -6 -36 -4 -41 31 -67 20 -16 47 -44 60 -64 13
-19 36 -54 53 -76 16 -23 32 -61 36 -85 12 -78 26 -110 52 -120 21 -8 24 -14
18 -37 -16 -67 -23 -147 -24 -278 -1 -140 -1 -141 -32 -187 -29 -45 -31 -50
-23 -110 10 -78 7 -98 -21 -173 -20 -52 -21 -67 -13 -116 8 -45 7 -62 -6 -87
-9 -17 -20 -31 -25 -31 -17 0 -21 -32 -6 -60 13 -26 13 -37 -6 -115 -11 -47
-19 -108 -18 -135 2 -33 -3 -57 -16 -77 -11 -15 -22 -48 -26 -73 -4 -25 -13
-60 -20 -77 -12 -29 -11 -37 4 -62 24 -40 21 -71 -8 -111 -28 -39 -31 -57 -10
-84 21 -28 19 -56 -9 -96 -35 -52 -39 -75 -20 -105 16 -25 16 -28 -5 -70 -20
-41 -21 -49 -10 -106 10 -51 10 -65 -2 -83 -10 -15 -14 -57 -15 -146 -1 -72
-7 -143 -15 -168 -12 -40 -12 -46 11 -88 19 -37 21 -49 12 -62 -35 -49 -36
-60 -11 -132 21 -63 22 -73 10 -112 -23 -76 -24 -107 -7 -133 20 -31 21 -99 0
-130 -15 -22 -14 -24 13 -37 25 -12 28 -19 28 -64 0 -31 8 -64 20 -87 19 -36
19 -38 2 -67 -18 -29 -18 -31 2 -59 30 -42 53 -118 46 -151 -9 -42 12 -107 41
-126 36 -24 46 -48 33 -78 -15 -32 11 -108 44 -131 37 -26 87 -97 87 -122 0
-14 10 -38 23 -55 41 -55 202 -213 247 -243 24 -17 70 -56 101 -88 34 -34 66
-57 78 -57 14 0 29 -12 41 -33 21 -35 56 -57 90 -57 11 0 25 -12 32 -27 15
-31 51 -51 106 -60 20 -4 53 -17 73 -30 21 -14 49 -23 70 -22 19 0 63 -6 99
-15 243 -58 305 -64 445 -45 198 26 336 56 412 90 144 64 219 104 248 130 17
16 46 35 65 43 19 8 58 33 85 55 28 22 81 61 118 86 38 26 87 63 109 83 48 44
150 168 172 211 9 17 27 47 41 66 13 20 29 53 35 73 7 20 31 89 55 152 24 63
54 158 66 210 12 52 33 120 46 150 17 36 26 77 28 120 1 36 8 97 15 135 7 39
12 86 11 105 -2 50 -10 330 -10 363 0 15 -8 41 -17 58 -12 24 -14 47 -9 102 4
48 2 94 -8 137 -11 51 -14 139 -12 400 3 365 6 421 31 506 11 40 14 74 10 115
-5 40 -2 77 10 121 9 35 18 92 19 128 2 36 15 101 29 145 14 44 26 92 26 108
0 32 52 160 80 197 17 23 24 25 137 27 210 6 287 11 330 20 23 6 79 11 124 12
46 1 88 5 94 9 12 8 155 15 275 13 61 -1 104 4 155 20 49 15 83 19 115 15 29
-4 64 -1 96 9 27 8 76 15 109 15 54 0 161 18 285 49 25 6 84 18 132 26 48 9
136 31 195 50 59 19 121 35 137 35 15 0 49 6 75 14 25 8 66 20 91 26 120 30
148 38 175 52 17 8 57 20 90 28 33 7 76 20 96 30 19 10 62 23 95 29 60 11 116
28 189 55 22 8 56 15 75 16 21 0 51 10 72 25 23 15 61 28 100 34 35 5 83 18
108 29 50 23 112 41 245 72 50 12 110 28 135 36 25 8 53 14 64 14 10 0 44 11
75 24 31 13 103 39 161 56 174 53 203 62 240 77 19 7 62 20 95 28 56 14 185
63 280 105 22 10 63 25 91 33 28 8 78 29 110 46 33 17 75 34 94 37 19 4 55 16
80 27 25 10 95 36 155 57 61 20 133 47 160 58 28 11 75 30 105 42 30 12 82 35
116 51 34 16 66 29 71 29 5 0 30 13 54 30 24 16 58 30 74 30 17 0 66 18 109
40 43 22 88 40 98 40 11 0 41 10 67 23 25 13 59 27 74 31 15 3 61 22 102 41
41 19 77 35 80 35 4 0 36 14 72 30 35 17 70 30 77 30 7 0 38 16 70 35 32 19
62 35 66 35 4 0 40 19 81 42 64 38 81 43 147 47 l75 3 -6 -62 c-8 -72 1 -90
44 -90 34 0 53 -29 46 -68 -4 -19 3 -35 23 -59 16 -18 32 -49 36 -69 4 -24 14
-38 30 -44 13 -5 31 -24 40 -42 9 -18 31 -49 50 -68 29 -30 35 -45 40 -99 6
-51 11 -65 32 -79 39 -27 65 -56 92 -102 14 -23 49 -67 78 -96 42 -43 52 -60
52 -88 0 -27 7 -39 38 -62 52 -40 142 -133 142 -147 0 -14 70 -84 110 -111 25
-16 81 -65 189 -162 31 -28 85 -64 121 -81 36 -16 85 -46 108 -66 24 -21 50
-37 57 -37 7 0 36 -16 65 -35 29 -19 56 -35 61 -35 5 0 32 -11 59 -25 27 -14
62 -25 77 -25 15 0 48 -14 72 -30 30 -21 57 -30 85 -31 77 -1 134 -15 181 -47
52 -34 80 -39 132 -20 27 10 38 9 67 -5 20 -9 74 -19 128 -22 51 -4 107 -11
123 -17 44 -16 294 -44 455 -52 60 -2 82 1 110 16 33 19 36 19 86 2 49 -16 56
-17 111 -2 32 9 94 26 138 38 44 12 100 27 125 33 25 7 66 24 91 40 25 15 50
27 54 27 5 0 47 26 94 57 103 70 321 278 369 353 20 30 53 78 74 105 54 69
126 182 134 208 3 12 18 42 32 67 31 54 50 151 63 318 8 116 8 126 -12 165
-19 35 -21 52 -16 118 7 91 0 123 -47 194 -20 29 -50 89 -66 132 -55 140 -92
207 -155 278 -35 39 -77 100 -95 138 -20 43 -45 77 -68 95 -19 15 -63 56 -96
90 -33 35 -73 70 -88 78 -16 8 -59 41 -96 72 -37 32 -83 67 -102 79 -19 11
-66 39 -104 63 -38 23 -90 48 -117 56 -26 8 -85 39 -130 70 -46 31 -101 64
-124 74 -23 10 -70 42 -105 71 -35 30 -74 61 -86 69 -63 44 -174 145 -201 184
-18 25 -45 52 -62 61 -40 20 -121 107 -146 156 -22 43 -97 99 -131 99 -22 0
-84 58 -84 79 0 12 65 113 179 276 26 39 75 111 106 160 32 50 73 108 90 130
18 22 41 60 53 85 11 25 27 56 36 70 8 14 23 43 34 65 31 65 83 158 103 186 9
14 21 38 25 55 8 33 78 175 106 216 10 15 30 57 44 95 14 37 50 114 80 170 30
56 54 112 54 124 0 22 34 105 91 225 16 34 29 65 29 71 0 5 13 30 29 55 17 26
35 75 42 110 8 42 30 95 65 159 46 80 54 103 54 146 0 54 37 176 76 255 13 26
24 55 24 64 0 21 59 211 75 244 7 14 20 65 28 113 9 48 29 117 46 153 21 44
31 82 31 113 0 28 16 90 41 161 31 86 42 133 43 185 2 49 9 82 24 110 18 33
23 64 28 175 4 94 12 154 26 198 13 41 18 77 14 100 -3 20 1 56 9 82 24 80 45
215 45 296 0 44 7 108 16 144 10 44 17 141 21 305 7 300 7 310 -2 367 -4 28
-3 65 3 91 9 32 9 53 0 78 -6 19 -12 81 -13 139 -1 58 -6 120 -10 138 -4 19
-3 44 5 62 10 23 9 38 -3 77 -18 58 -34 172 -43 308 -4 59 -13 112 -22 130 -8
17 -16 57 -17 90 -1 33 -9 78 -18 100 -9 22 -16 62 -17 88 0 26 -7 62 -16 79
-10 20 -14 42 -10 64 5 24 0 50 -19 93 -17 41 -24 76 -23 109 2 40 -3 55 -27
87 -27 34 -30 46 -28 102 2 44 -4 75 -17 105 -11 24 -20 66 -20 93 0 28 -9 70
-21 94 -11 25 -24 81 -28 125 -6 48 -18 97 -30 121 -18 34 -21 50 -15 105 5
61 4 68 -25 110 -25 36 -31 55 -31 98 0 57 -15 95 -49 126 -14 13 -21 31 -21
55 0 20 -9 54 -19 77 -10 23 -22 61 -26 85 -3 24 -15 70 -26 102 -10 31 -19
66 -19 76 0 10 -7 24 -16 32 -8 7 -22 25 -30 41 -14 27 -13 33 10 85 31 66 32
80 6 113 -24 31 -25 82 -3 166 16 59 16 66 0 98 -13 28 -14 41 -5 67 9 25 7
38 -6 65 -9 19 -16 59 -16 89 0 83 -19 196 -41 237 -11 21 -19 57 -19 85 0 37
-9 65 -40 121 -22 40 -40 82 -40 92 0 10 -16 49 -36 86 -27 51 -35 76 -31 100
6 35 -22 91 -51 101 -31 11 -52 36 -52 60 0 31 36 114 75 175 71 111 91 145
106 188 17 48 34 81 87 162 17 27 32 54 32 58 0 5 16 29 35 55 20 25 43 67 51
93 9 26 37 87 61 137 25 49 52 112 60 140 8 27 21 60 30 73 16 26 61 131 99
232 13 36 33 77 43 91 11 15 27 55 36 90 20 76 44 138 91 235 19 39 34 76 34
83 0 6 9 29 20 51 11 22 20 53 20 70 0 17 4 40 10 50 5 10 17 49 25 87 8 37
26 90 40 117 14 27 25 63 25 80 0 36 5 54 55 191 20 55 43 127 50 160 7 33 25
94 40 135 14 41 34 107 44 147 10 40 30 87 44 106 22 29 25 43 25 100 -1 60 2
72 29 110 27 37 32 54 35 117 7 112 38 300 55 334 9 17 15 51 14 77 0 26 7 67
15 91 11 28 16 72 15 125 -1 65 4 97 23 147 23 62 24 68 16 236 -5 102 -5 195
1 229 13 82 11 155 -7 225 -13 51 -14 72 -4 131 10 61 9 76 -5 115 -17 43 -39
237 -53 460 -6 93 -10 110 -36 148 -23 34 -30 58 -36 120 -6 66 -12 85 -44
131 -20 29 -36 64 -36 78 0 45 -78 222 -130 296 -36 51 -50 80 -50 105 0 40
-11 63 -61 122 -21 25 -45 65 -53 88 -8 23 -26 57 -40 75 -13 17 -27 47 -31
66 -4 18 -22 50 -39 70 -64 72 -105 133 -121 181 -11 33 -28 57 -51 75 -20 15
-44 46 -54 69 -10 22 -32 58 -49 80 -17 21 -31 45 -31 53 0 7 -35 51 -78 96
-42 45 -112 126 -154 178 -43 53 -105 123 -139 155 -33 33 -73 80 -88 107 -16
26 -68 91 -117 145 -49 53 -98 111 -108 127 -27 46 -370 380 -460 449 -44 33
-105 83 -135 111 -31 28 -74 62 -95 75 -21 13 -69 50 -105 82 -36 32 -84 71
-106 86 -22 15 -65 47 -95 72 -30 26 -68 52 -85 59 -16 7 -44 30 -62 51 -33
38 -146 121 -213 155 -19 10 -59 40 -88 67 -58 52 -177 133 -230 155 -18 7
-65 34 -105 58 -39 25 -82 45 -94 45 -12 0 -27 6 -32 13 -54 66 -80 90 -127
117 -31 17 -74 44 -96 61 -23 16 -59 34 -82 40 -22 6 -52 19 -66 29 -14 9 -65
39 -115 65 -49 26 -102 56 -117 66 -15 11 -46 26 -69 34 -23 8 -56 24 -74 35
-18 11 -51 27 -74 35 -55 19 -170 75 -302 147 -58 32 -135 69 -170 82 -35 13
-84 36 -109 50 -25 14 -54 26 -65 26 -11 0 -38 11 -60 25 -112 68 -192 91
-278 79 -41 -6 -51 -4 -74 17 -31 28 -95 163 -112 235 -8 32 -27 68 -51 98
-29 34 -40 59 -45 94 -6 47 -36 115 -82 183 -14 22 -28 62 -33 97 -9 63 -21
94 -51 127 -9 11 -30 45 -45 75 -15 30 -42 78 -60 105 -18 28 -40 74 -49 103
-13 39 -29 62 -61 89 -25 19 -47 47 -50 60 -4 14 -24 45 -45 70 -24 27 -39 54
-39 70 0 18 -14 40 -43 67 -55 54 -81 91 -96 144 -6 23 -25 57 -40 75 -30 34
-123 175 -161 244 -13 24 -40 54 -61 68 -29 19 -39 33 -44 62 -4 21 -11 52
-17 68 -15 39 -336 365 -410 416 -32 22 -68 53 -80 70 -25 33 -228 182 -271
198 -14 6 -43 21 -64 35 -21 14 -49 28 -63 31 -14 3 -45 22 -69 41 -29 22 -54
34 -75 34 -19 0 -53 13 -81 31 -37 24 -68 34 -125 41 -41 5 -92 16 -113 24
-40 15 -166 17 -317 4z m305 -300 c39 -7 89 -23 112 -37 30 -17 54 -24 80 -21
32 3 38 0 43 -21 7 -29 15 -34 110 -63 54 -16 87 -33 116 -60 26 -24 51 -38
68 -38 27 0 30 -3 40 -52 4 -19 15 -30 33 -34 14 -4 49 -25 77 -48 28 -23 62
-49 76 -57 46 -30 115 -104 125 -134 7 -21 20 -33 44 -41 33 -11 53 -34 118
-135 15 -24 72 -60 116 -73 19 -6 23 -46 6 -77 -8 -16 -7 -25 7 -40 9 -10 23
-19 29 -19 7 0 16 -11 19 -25 3 -13 21 -39 40 -57 18 -18 37 -48 41 -66 4 -18
18 -40 33 -50 14 -9 46 -37 70 -62 40 -41 43 -48 38 -82 -6 -34 -2 -42 49 -99
43 -50 55 -71 57 -103 3 -35 9 -44 46 -69 37 -25 42 -33 42 -66 0 -40 14 -61
42 -61 10 0 25 -15 37 -37 10 -21 31 -49 45 -62 19 -18 27 -38 32 -82 5 -49
10 -58 30 -63 36 -9 67 -60 59 -96 -6 -26 -1 -37 29 -70 30 -33 34 -44 29 -73
-4 -29 -2 -36 16 -42 25 -8 51 -53 51 -89 0 -14 8 -29 17 -35 9 -5 22 -29 28
-52 7 -33 17 -47 38 -57 35 -17 43 -36 29 -68 -14 -30 -3 -61 39 -114 31 -38
31 -41 25 -109 -7 -74 0 -91 50 -119 13 -7 20 -28 26 -73 13 -110 24 -153 46
-201 24 -49 30 -90 19 -125 -6 -17 -1 -29 23 -54 17 -18 33 -44 36 -58 2 -14
9 -39 15 -56 6 -16 18 -51 26 -77 8 -27 19 -48 23 -48 15 0 39 -54 66 -146 36
-124 68 -184 99 -184 33 0 45 31 45 119 0 57 4 74 29 113 45 70 46 83 15 141
-26 48 -28 61 -28 162 -1 97 -4 115 -25 150 -20 35 -22 48 -17 100 7 67 22 90
40 61 23 -39 47 -56 79 -56 35 0 56 -12 132 -76 31 -26 77 -52 123 -68 78 -27
172 -76 192 -101 7 -8 18 -15 24 -15 6 0 57 -22 111 -49 55 -27 118 -54 140
-61 22 -7 47 -18 55 -25 26 -22 78 -45 101 -45 24 0 108 -49 152 -89 20 -18
37 -24 63 -23 28 2 40 -3 60 -27 14 -17 46 -37 73 -46 27 -8 62 -31 82 -51 46
-48 170 -124 201 -124 17 0 34 -11 52 -34 15 -20 42 -40 63 -47 21 -6 49 -20
63 -29 14 -10 57 -34 95 -55 84 -46 105 -62 105 -86 0 -23 37 -49 71 -49 45 0
119 -50 242 -162 23 -21 46 -38 52 -38 6 0 29 -18 50 -41 22 -22 64 -52 93
-66 30 -14 58 -35 64 -48 6 -13 25 -29 42 -36 17 -7 49 -29 71 -50 138 -127
243 -212 269 -219 12 -3 25 -16 31 -28 5 -12 21 -26 35 -31 28 -10 181 -156
225 -214 15 -21 42 -44 59 -51 19 -8 44 -34 66 -69 20 -33 45 -59 58 -63 13
-4 25 -17 29 -33 3 -14 41 -61 85 -103 43 -42 78 -82 78 -87 0 -6 19 -24 42
-41 23 -17 49 -48 59 -70 11 -24 32 -48 54 -61 19 -12 35 -29 35 -39 0 -27 65
-106 99 -120 37 -15 61 -50 61 -89 0 -21 8 -35 26 -48 62 -43 142 -131 146
-159 2 -23 9 -30 32 -34 39 -7 72 -59 56 -89 -13 -25 1 -57 28 -65 27 -9 67
-54 95 -107 13 -26 31 -57 40 -70 10 -13 17 -30 17 -38 0 -8 25 -40 55 -72 30
-32 56 -67 56 -78 1 -12 2 -34 3 -50 1 -31 31 -71 52 -71 14 0 21 -21 26 -74
2 -23 10 -31 38 -40 40 -13 49 -40 30 -86 -15 -37 1 -70 34 -70 37 0 47 -22
45 -96 -2 -61 0 -69 22 -85 50 -37 59 -50 59 -81 0 -17 12 -51 26 -75 18 -31
24 -52 20 -69 -5 -17 1 -38 15 -64 19 -33 20 -44 11 -64 -10 -22 -7 -30 23
-66 34 -41 34 -42 20 -77 -21 -50 -19 -80 10 -130 23 -38 25 -48 16 -81 -16
-57 -13 -104 10 -141 15 -25 19 -45 16 -70 -20 -134 -20 -139 2 -175 19 -30
21 -40 11 -75 -7 -27 -7 -47 0 -66 5 -14 8 -43 5 -63 -2 -20 -7 -80 -10 -134
-5 -92 -4 -97 20 -126 30 -36 31 -50 5 -101 -13 -24 -23 -66 -25 -107 -7 -96
-14 -141 -32 -197 -13 -43 -13 -50 1 -72 22 -33 22 -34 -25 -114 l-41 -71 17
-50 c15 -46 15 -53 1 -74 -18 -28 -49 -154 -40 -167 3 -5 -6 -34 -20 -65 -14
-31 -26 -63 -26 -71 0 -7 -9 -32 -21 -55 -19 -36 -20 -46 -9 -78 16 -49 10
-72 -22 -88 -24 -11 -27 -18 -26 -55 0 -24 -6 -56 -14 -73 -9 -16 -18 -45 -21
-65 -3 -20 -17 -62 -32 -93 -14 -30 -29 -71 -32 -91 -3 -19 -10 -38 -14 -41
-5 -3 -9 -17 -9 -32 0 -34 -45 -175 -65 -205 -18 -28 -45 -114 -45 -145 0 -13
-11 -40 -25 -60 -22 -32 -25 -47 -25 -127 l0 -90 -40 -36 c-33 -31 -40 -43
-40 -75 0 -27 -10 -53 -30 -83 -17 -24 -30 -51 -30 -59 0 -18 -49 -163 -60
-177 -4 -5 -17 -37 -29 -69 -12 -33 -31 -72 -42 -88 -33 -46 -69 -144 -69
-188 0 -31 -10 -55 -46 -106 -68 -101 -124 -212 -124 -248 0 -17 -9 -49 -20
-71 -11 -22 -20 -51 -20 -66 0 -24 -5 -28 -32 -31 -29 -3 -33 -7 -39 -40 -6
-39 -12 -48 -86 -130 -29 -32 -43 -56 -43 -75 0 -15 -11 -46 -25 -68 -37 -60
-86 -164 -102 -218 -9 -33 -21 -51 -36 -56 -28 -11 -42 -28 -51 -62 -3 -15
-24 -48 -46 -75 -22 -27 -40 -53 -40 -59 0 -6 -29 -51 -65 -100 -36 -49 -65
-96 -65 -105 -1 -44 -29 -96 -66 -117 -41 -23 -63 -55 -64 -90 0 -15 -11 -28
-30 -38 -17 -9 -42 -35 -56 -58 -24 -37 -63 -85 -150 -182 -15 -16 -40 -58
-56 -92 -19 -43 -34 -63 -46 -63 -23 0 -42 -19 -42 -42 0 -11 -14 -26 -32 -36
-42 -23 -142 -125 -185 -188 -18 -28 -46 -57 -61 -65 -15 -8 -78 -67 -141
-132 -63 -65 -128 -125 -145 -134 -69 -34 -136 -122 -136 -177 0 -19 -11 -31
-45 -52 -33 -19 -53 -41 -71 -75 -15 -30 -40 -59 -64 -75 -22 -15 -49 -42 -61
-60 -23 -38 -22 -80 1 -77 36 5 148 42 185 62 21 11 45 21 52 21 18 0 140 62
199 101 27 18 89 71 138 117 49 47 101 92 116 101 83 52 339 299 457 441 39
47 94 110 123 140 67 70 159 182 185 225 11 18 32 48 47 66 134 166 203 261
228 313 44 93 131 201 161 201 21 0 24 -5 27 -42 2 -27 -3 -51 -12 -65 -22
-31 -20 -38 12 -49 40 -14 64 -60 64 -124 0 -38 6 -59 18 -70 9 -8 25 -39 35
-68 18 -52 18 -54 -4 -112 -25 -65 -17 -90 20 -67 32 20 51 0 37 -40 -8 -21
-7 -41 1 -68 8 -29 8 -68 0 -158 -11 -108 -11 -123 4 -146 21 -31 21 -63 2
-109 -8 -20 -15 -52 -15 -71 0 -20 -9 -50 -20 -68 l-19 -32 21 -23 c21 -23 21
-25 5 -71 -36 -104 -49 -179 -36 -201 11 -17 10 -26 -9 -59 -14 -25 -22 -57
-22 -84 0 -32 -6 -50 -20 -63 -15 -14 -20 -31 -20 -73 0 -42 -7 -67 -29 -106
-17 -30 -31 -74 -35 -106 -8 -64 -14 -76 -40 -81 -12 -3 -23 -16 -28 -36 -5
-18 -18 -38 -31 -44 -33 -18 -36 -27 -36 -106 1 -83 -3 -93 -37 -93 -33 0 -96
-64 -117 -120 -9 -25 -43 -73 -74 -107 -71 -75 -103 -117 -103 -134 0 -7 -7
-32 -15 -54 -12 -31 -26 -45 -57 -60 -29 -14 -49 -33 -65 -65 -13 -25 -35 -51
-48 -58 -18 -9 -25 -21 -25 -40 0 -33 -16 -52 -45 -52 -15 0 -27 -11 -38 -35
-9 -20 -17 -40 -17 -46 0 -10 -28 -48 -112 -152 -52 -63 -57 -77 -32 -98 14
-12 24 -10 65 14 27 15 60 27 74 27 16 0 46 19 84 52 32 29 81 69 107 88 55
39 117 95 217 196 152 153 186 190 200 219 8 17 41 65 74 107 32 42 73 101 91
130 19 29 47 71 63 93 15 22 28 47 29 56 0 9 9 27 19 40 10 14 37 61 58 104
65 131 138 262 166 294 14 17 29 40 32 52 9 28 37 20 49 -13 7 -19 5 -39 -4
-67 -17 -52 -8 -120 20 -159 21 -28 22 -33 9 -81 -13 -52 -13 -53 26 -121 10
-17 12 -42 8 -88 -5 -54 -3 -67 16 -92 11 -16 21 -40 21 -53 0 -14 9 -45 20
-70 16 -36 19 -57 14 -105 -6 -54 -5 -61 15 -71 11 -7 21 -21 21 -32 0 -11 14
-38 32 -60 l32 -39 -22 -30 c-30 -41 -28 -66 12 -103 50 -48 57 -65 40 -107
-11 -28 -12 -43 -4 -64 5 -15 10 -43 10 -63 0 -19 9 -48 20 -64 31 -43 46
-141 30 -202 -12 -47 -11 -51 20 -112 35 -68 37 -107 9 -173 -13 -31 -12 -34
14 -58 31 -28 32 -35 13 -72 -7 -15 -17 -42 -21 -60 -6 -30 -3 -38 26 -68 l33
-34 -18 -35 c-12 -22 -17 -45 -13 -67 3 -18 0 -50 -6 -71 -9 -33 -8 -44 8 -73
15 -28 16 -40 8 -72 -14 -48 -10 -237 6 -285 11 -32 10 -51 -4 -114 -14 -64
-15 -85 -5 -132 9 -44 9 -66 -1 -101 -7 -25 -11 -79 -10 -122 1 -62 -2 -82
-19 -110 -17 -28 -20 -50 -20 -137 0 -97 -2 -108 -26 -143 -25 -36 -26 -39
-10 -62 24 -38 20 -78 -14 -121 -35 -44 -38 -75 -10 -100 24 -22 26 -48 4 -66
-10 -8 -14 -23 -11 -43 4 -22 -3 -45 -21 -75 -24 -43 -24 -46 -9 -74 27 -46
22 -83 -14 -109 -49 -36 -61 -69 -58 -158 3 -73 1 -80 -21 -98 -22 -17 -25
-29 -26 -84 0 -53 -7 -78 -43 -153 -34 -73 -41 -97 -37 -127 5 -30 -1 -48 -34
-106 -37 -64 -40 -75 -34 -119 5 -43 1 -59 -35 -137 -23 -49 -41 -101 -41
-116 0 -17 -14 -44 -35 -70 -37 -45 -43 -73 -23 -127 11 -31 10 -34 -24 -65
-30 -27 -42 -51 -68 -134 -19 -65 -39 -109 -55 -124 -26 -24 -41 -57 -49 -110
-3 -19 -19 -64 -36 -98 -16 -35 -30 -74 -30 -87 0 -13 -15 -45 -33 -72 -18
-27 -52 -106 -75 -177 -23 -70 -53 -142 -67 -160 -14 -18 -25 -41 -25 -51 0
-17 -66 -137 -95 -175 -7 -8 -20 -37 -30 -65 -10 -27 -24 -57 -32 -66 -7 -8
-13 -29 -13 -45 -1 -32 -21 -61 -64 -89 -36 -24 -58 -74 -50 -114 5 -26 0 -36
-49 -83 -33 -32 -58 -66 -62 -83 -9 -45 -20 -60 -44 -63 -12 -2 -29 -16 -38
-30 -10 -15 -30 -42 -45 -60 -15 -18 -31 -44 -34 -59 -4 -15 -23 -43 -43 -63
-47 -48 -51 -54 -90 -125 -21 -39 -51 -75 -87 -103 -29 -23 -79 -74 -110 -113
-31 -39 -70 -77 -87 -86 -39 -19 -167 -183 -167 -213 0 -6 -13 -10 -30 -10
-16 0 -37 -8 -45 -17 -9 -10 -29 -35 -47 -56 -17 -21 -43 -44 -57 -52 -14 -7
-56 -42 -93 -77 -133 -126 -168 -158 -177 -158 -5 0 -42 -22 -83 -48 -40 -27
-88 -57 -106 -66 -18 -9 -38 -27 -43 -40 -6 -12 -34 -35 -62 -50 -52 -26 -75
-41 -205 -129 -39 -26 -82 -51 -95 -56 -14 -5 -57 -30 -96 -55 -39 -25 -99
-59 -133 -76 -73 -35 -129 -68 -156 -93 -10 -9 -24 -17 -30 -17 -7 0 -51 -20
-99 -44 -49 -24 -110 -53 -138 -65 -27 -12 -59 -27 -70 -33 -10 -6 -38 -21
-62 -33 -23 -13 -54 -33 -69 -44 -15 -12 -45 -26 -68 -32 -22 -7 -79 -31 -126
-54 -47 -23 -99 -45 -117 -48 -18 -4 -66 -22 -107 -42 -41 -19 -81 -35 -90
-35 -8 0 -31 -14 -51 -32 -25 -21 -52 -34 -87 -39 -28 -5 -68 -20 -89 -34 -21
-14 -60 -30 -86 -36 -49 -12 -59 -15 -243 -89 -100 -39 -136 -56 -205 -93 -40
-21 -217 -87 -235 -87 -8 0 -39 -11 -68 -25 -30 -14 -66 -25 -80 -25 -14 0
-49 -13 -77 -29 -29 -16 -70 -33 -91 -37 -21 -4 -73 -22 -116 -40 -42 -19
-103 -43 -135 -53 -32 -11 -89 -31 -128 -46 -38 -15 -117 -42 -175 -61 -58
-19 -139 -45 -180 -59 -42 -14 -85 -25 -97 -25 -12 0 -60 -15 -106 -34 -46
-18 -116 -41 -155 -50 -39 -9 -86 -22 -104 -30 -18 -8 -69 -21 -113 -31 -143
-30 -239 -59 -277 -82 -23 -14 -53 -23 -77 -23 -22 0 -52 -5 -68 -11 -15 -6
-44 -15 -63 -19 -19 -4 -57 -17 -85 -28 -27 -11 -79 -28 -115 -37 -36 -10 -81
-23 -100 -31 -19 -7 -64 -21 -100 -29 -36 -9 -75 -23 -87 -31 -12 -8 -33 -14
-45 -14 -29 0 -321 -74 -408 -104 -44 -15 -122 -31 -210 -45 -25 -4 -59 -15
-77 -24 -21 -11 -55 -17 -99 -17 -36 0 -92 -7 -123 -15 -31 -8 -78 -14 -106
-14 -58 1 -228 -16 -330 -32 -38 -6 -92 -10 -120 -10 -27 0 -79 -4 -115 -10
-36 -6 -107 -10 -158 -10 -52 0 -113 -6 -140 -14 -26 -8 -78 -15 -117 -15 -38
0 -99 -7 -135 -15 -57 -12 -74 -12 -144 2 -65 13 -89 13 -131 4 -35 -8 -66 -9
-93 -3 -23 6 -43 8 -45 6 -2 -3 -107 3 -233 12 -126 9 -281 18 -344 20 -63 2
-149 6 -190 10 -41 3 -116 6 -167 4 -70 -1 -98 2 -115 14 -33 23 -80 20 -122
-9 -31 -21 -48 -25 -111 -25 -62 0 -79 -4 -95 -20 -42 -42 -17 -77 70 -100 25
-6 64 -23 87 -36 23 -13 48 -24 56 -24 9 0 28 -6 44 -14 58 -29 129 -46 161
-40 24 5 38 2 53 -12 17 -15 38 -19 113 -20 50 -1 126 -7 169 -14 62 -11 89
-11 126 -1 39 10 54 9 90 -4 24 -8 77 -15 118 -15 78 0 219 -25 241 -42 20
-17 14 -71 -14 -111 -31 -46 -54 -109 -54 -151 0 -17 -7 -40 -15 -50 -17 -23
-20 -62 -5 -71 17 -10 11 -40 -15 -75 -24 -32 -25 -41 -25 -168 0 -86 -4 -141
-12 -155 -13 -23 -27 -113 -32 -207 -2 -30 -11 -75 -21 -100 -19 -47 -18 -51
21 -131 2 -3 -6 -23 -17 -44 -17 -32 -19 -45 -11 -72 6 -19 7 -48 2 -70 -12
-52 -3 -304 11 -337 10 -20 10 -34 0 -63 -35 -108 -30 -176 13 -212 20 -17 20
-55 0 -115 -15 -44 -15 -48 2 -68 17 -18 19 -35 16 -145 -2 -69 -8 -136 -13
-150 -6 -17 -5 -30 6 -47 14 -21 14 -28 -5 -78 -11 -31 -29 -63 -40 -73 -14
-12 -20 -31 -20 -59 0 -25 -10 -60 -25 -88 -13 -25 -30 -79 -36 -120 -6 -41
-24 -98 -40 -130 -16 -32 -29 -64 -29 -71 0 -8 -22 -40 -50 -73 -124 -147
-156 -178 -207 -200 -39 -18 -54 -30 -59 -50 -5 -20 -21 -33 -61 -51 -66 -31
-92 -26 -127 25 -29 43 -31 52 -14 98 9 27 8 40 -7 81 -13 33 -20 79 -21 148
-2 55 -7 121 -13 146 -7 31 -7 58 -1 80 13 45 13 96 -1 105 -6 3 -19 26 -29
49 -28 66 -74 83 -117 43 -13 -12 -23 -33 -23 -47 0 -14 -8 -39 -17 -56 -16
-29 -26 -136 -24 -265 0 -30 1 -99 1 -153 1 -79 5 -104 21 -132 23 -38 55
-250 45 -291 -9 -33 -73 -64 -133 -64 -26 0 -86 -6 -133 -14 -101 -16 -157
-11 -171 15 -5 10 -12 56 -16 101 -3 46 -11 92 -17 103 -6 11 -14 63 -17 115
-4 52 -16 128 -28 168 l-22 74 23 44 c20 41 21 48 8 77 -17 40 -14 139 6 193
15 39 15 44 -6 83 -32 64 -81 73 -120 23 -11 -13 -20 -32 -20 -41 0 -10 -13
-38 -29 -64 -42 -64 -50 -105 -53 -243 -2 -103 0 -124 16 -149 16 -25 17 -35
8 -93 -9 -55 -8 -80 7 -151 43 -200 36 -238 -43 -226 -56 9 -209 82 -239 114
-14 14 -30 42 -36 62 -7 20 -21 45 -32 55 -12 10 -26 28 -32 39 -25 46 -40
374 -24 515 21 191 22 175 -8 198 -15 12 -38 22 -51 22 -38 0 -90 -53 -104
-107 -7 -27 -26 -79 -43 -117 -25 -60 -28 -76 -22 -120 4 -28 9 -80 11 -116 2
-36 5 -78 6 -95 2 -24 -1 -31 -19 -33 -14 -2 -31 6 -45 21 -13 13 -51 53 -85
89 -48 50 -65 77 -77 120 -13 42 -26 63 -56 87 -40 32 -40 32 -40 102 0 51 -6
81 -21 111 -14 26 -25 75 -30 132 -22 216 -28 254 -48 311 -13 35 -20 74 -18
95 2 19 0 81 -4 138 -6 79 -5 113 6 150 19 61 19 87 -1 118 -18 26 -17 56 6
254 6 47 13 139 16 205 4 73 12 131 21 148 12 23 13 55 7 161 -5 104 -4 138 7
157 9 16 14 62 15 139 1 98 5 126 28 190 24 64 28 94 31 201 2 74 8 136 15
149 8 15 10 41 5 76 -4 37 -2 66 10 101 24 69 23 125 -3 158 -27 34 -27 48 -2
83 15 21 20 46 22 109 3 76 1 84 -23 110 -19 20 -31 51 -43 108 -19 94 -24
191 -11 204 13 11 113 -63 125 -92 5 -12 11 -34 14 -49 5 -20 13 -28 28 -28
12 0 42 -13 67 -29 25 -16 57 -32 71 -36 14 -4 49 -23 78 -43 44 -30 64 -37
108 -39 42 -1 62 -8 85 -27 26 -22 40 -26 94 -26 37 0 117 -13 189 -31 145
-35 179 -35 184 -1 5 30 -21 58 -59 66 -24 4 -34 14 -46 46 -13 32 -23 42 -56
53 -33 11 -43 20 -49 44 -8 32 -34 43 -102 43 -23 0 -40 10 -69 40 -31 33 -44
40 -76 40 -38 0 -46 4 -174 93 -34 23 -123 128 -213 250 -17 23 -49 54 -71 69
-35 24 -42 35 -56 92 -17 67 -76 173 -134 239 -22 24 -33 47 -33 67 0 23 -12
44 -45 79 -25 26 -45 58 -45 70 0 23 -63 156 -79 165 -5 4 -17 30 -27 59 -25
77 -60 143 -99 186 -24 26 -35 48 -35 68 0 17 -16 60 -36 97 -19 37 -44 95
-55 129 -11 33 -31 81 -45 105 -16 26 -24 52 -20 64 6 26 -16 80 -48 119 -14
16 -28 46 -31 67 -10 61 -25 113 -61 203 -31 79 -41 124 -63 285 -6 39 -19 76
-36 102 -29 44 -32 61 -20 135 8 52 -9 173 -31 217 -7 16 -12 68 -13 133 0 59
-3 113 -7 119 -4 7 -11 62 -16 122 -4 61 -11 133 -14 159 -4 36 -1 60 11 87
17 38 17 40 -5 93 -22 53 -22 59 -10 149 16 119 16 157 1 241 -9 48 -10 81 -2
115 6 30 7 62 1 87 -12 53 -3 665 10 700 15 40 12 77 -10 110 -14 22 -18 39
-14 62 4 19 0 49 -8 70 -11 27 -15 88 -17 217 -1 106 -6 186 -12 198 -23 43
-28 81 -17 122 10 36 8 47 -12 86 -16 31 -22 61 -22 100 1 30 -3 71 -8 90 -4
19 -16 71 -25 115 -28 133 -36 158 -66 206 -31 48 -49 127 -49 211 0 70 -15
96 -59 100 -34 3 -38 8 -74 76 -26 49 -47 77 -65 85 -15 6 -44 25 -65 41 -30
24 -42 28 -55 20 -28 -18 -25 -60 7 -128 17 -34 31 -68 31 -74 0 -7 14 -39 31
-71 23 -44 32 -76 34 -118 4 -103 18 -177 36 -202 11 -13 19 -39 19 -58 0 -19
7 -48 16 -65 11 -22 14 -43 9 -79 -6 -40 -3 -53 14 -78 12 -16 21 -43 21 -61
0 -17 5 -51 11 -76 10 -40 9 -49 -17 -99 l-27 -55 36 -34 c44 -40 46 -65 17
-151 -25 -73 -25 -77 5 -121 23 -33 24 -43 19 -105 -5 -45 -3 -78 6 -98 9 -24
9 -37 -1 -65 -12 -34 -11 -37 15 -65 32 -34 30 -56 -8 -71 -35 -13 -39 -25
-21 -61 12 -22 14 -43 10 -71 -5 -29 -2 -49 10 -73 18 -32 18 -33 -13 -90 -39
-71 -39 -80 -7 -101 31 -20 32 -54 5 -124 l-20 -51 21 -30 c15 -22 19 -38 14
-57 -4 -15 -6 -81 -5 -147 1 -66 3 -156 3 -200 1 -44 -3 -102 -7 -128 -7 -39
-5 -54 10 -82 16 -30 17 -39 5 -70 -10 -29 -10 -43 -1 -65 9 -22 9 -37 1 -62
-8 -23 -8 -41 0 -66 9 -26 8 -43 -1 -72 -11 -34 -10 -42 9 -73 17 -29 19 -39
10 -65 -8 -24 -7 -37 5 -61 22 -41 20 -60 -13 -106 l-27 -40 -90 3 c-85 3
-125 11 -333 67 -51 14 -106 25 -123 25 -16 0 -46 9 -68 20 -22 11 -52 20 -67
20 -16 0 -55 13 -88 30 -39 19 -76 30 -105 30 -30 0 -58 8 -85 25 -22 13 -47
25 -56 25 -9 0 -56 16 -103 35 -48 19 -97 35 -109 35 -12 0 -40 12 -61 26 -23
16 -73 34 -122 45 -45 10 -114 34 -151 53 -38 20 -84 39 -103 42 -19 4 -54 18
-76 31 -23 13 -84 37 -135 53 -52 16 -121 46 -154 66 -33 20 -103 56 -155 81
-52 24 -108 54 -125 67 -16 13 -63 40 -103 60 -40 20 -90 52 -111 71 -21 19
-43 35 -49 35 -5 0 -35 19 -66 42 -89 69 -109 82 -148 101 -21 11 -50 33 -66
50 -36 41 -91 88 -182 157 -71 54 -120 99 -170 156 -14 16 -72 72 -130 124
-57 52 -145 136 -195 186 -49 51 -102 99 -117 109 -15 9 -44 42 -65 73 -78
119 -148 201 -199 233 -18 11 -39 35 -48 54 -9 19 -37 52 -62 72 -25 21 -58
60 -74 88 -16 27 -50 73 -77 100 -27 28 -68 77 -93 110 -24 33 -58 77 -76 97
-18 21 -45 57 -60 80 -15 24 -44 62 -65 85 -22 24 -39 49 -39 57 0 7 -19 36
-43 62 -23 27 -56 69 -72 94 -16 25 -46 64 -67 88 -50 55 -98 131 -98 154 0
10 -16 36 -36 58 -23 25 -37 51 -38 72 -2 18 -4 39 -5 47 0 8 -20 31 -42 52
-29 27 -46 53 -55 86 -19 71 -64 175 -84 198 -25 27 -96 173 -125 254 -13 36
-32 89 -43 116 -11 28 -25 75 -31 105 -34 164 -41 186 -82 239 -14 18 -19 41
-19 91 0 54 -4 73 -22 95 -21 27 -30 60 -46 177 -5 35 -18 71 -35 95 -33 48
-43 93 -28 133 10 29 8 34 -17 58 -15 15 -36 32 -47 38 -18 10 -18 12 -2 70
22 78 22 78 -13 117 -16 19 -30 43 -30 54 0 11 -13 37 -30 59 -27 36 -29 43
-24 100 5 48 2 70 -14 106 -11 25 -23 59 -27 76 -8 36 -39 67 -60 59 -12 -5
-15 -31 -17 -149 -1 -79 -1 -152 1 -163 1 -11 5 -78 9 -150 4 -72 13 -140 20
-152 14 -26 16 -99 2 -108 -19 -11 -10 -44 20 -79 30 -33 30 -37 24 -100 -5
-52 -3 -70 10 -91 9 -14 27 -74 41 -133 13 -59 32 -129 42 -157 36 -93 48
-163 34 -200 -10 -28 -9 -39 4 -64 8 -17 15 -44 15 -62 0 -23 9 -40 35 -65 42
-39 43 -52 8 -79 -36 -29 -27 -71 19 -83 22 -5 37 -19 51 -46 l20 -37 -22 -30
c-29 -38 -23 -52 27 -67 50 -15 59 -37 32 -74 -28 -37 -23 -57 20 -86 19 -13
43 -40 54 -60 10 -20 32 -52 47 -70 25 -28 27 -36 18 -59 -13 -36 -4 -73 19
-73 22 0 42 -19 42 -39 0 -8 12 -32 26 -52 14 -21 28 -57 31 -81 7 -52 18 -68
48 -68 25 0 65 -42 65 -69 0 -9 -9 -22 -20 -29 -27 -16 -16 -33 18 -30 22 3
28 -3 37 -27 5 -17 26 -51 46 -75 46 -58 79 -113 79 -133 0 -9 24 -35 53 -59
37 -29 58 -56 68 -83 9 -27 26 -48 52 -64 29 -19 37 -31 37 -54 0 -24 13 -43
60 -89 33 -32 60 -64 60 -73 0 -8 30 -45 68 -83 37 -37 73 -80 80 -96 9 -21
18 -27 32 -23 22 6 35 -7 44 -44 3 -15 14 -29 25 -32 11 -3 22 -17 26 -37 5
-22 18 -38 42 -52 35 -21 202 -226 218 -268 19 -48 34 -64 79 -81 59 -22 66
-31 59 -76 -5 -30 -3 -35 24 -45 18 -7 34 -23 41 -40 8 -23 16 -28 44 -28 35
0 65 -24 101 -82 9 -14 26 -29 37 -33 11 -4 29 -24 40 -45 11 -21 39 -51 62
-67 23 -15 67 -53 98 -83 55 -55 68 -66 157 -129 26 -19 52 -42 57 -50 16 -27
106 -105 139 -121 29 -14 76 -80 77 -106 0 -6 -19 -17 -42 -24 -44 -12 -180
-83 -208 -106 -37 -31 -164 -86 -262 -114 -59 -16 -114 -30 -122 -30 -8 0 -46
-13 -84 -30 -39 -16 -82 -30 -96 -30 -15 0 -88 -15 -164 -34 -138 -34 -245
-50 -315 -48 -21 1 -69 -5 -108 -13 -55 -12 -80 -13 -112 -4 -22 6 -88 10
-146 9 -151 -3 -232 4 -266 22 -16 8 -66 21 -110 27 -44 7 -102 21 -130 31
-27 9 -79 21 -114 25 -79 9 -170 36 -236 69 -27 14 -55 26 -61 26 -7 0 -38 14
-69 30 -31 17 -66 30 -77 30 -11 0 -37 13 -57 28 -20 16 -76 48 -126 72 -113
56 -214 123 -331 220 -81 66 -128 98 -251 171 -18 10 -45 37 -60 60 -16 23
-95 109 -177 193 -95 96 -155 166 -166 192 -10 23 -37 57 -60 75 -23 19 -51
53 -62 75 -10 23 -34 59 -52 80 -18 22 -45 59 -60 84 -15 25 -38 60 -52 79
-13 19 -27 52 -31 74 -4 24 -19 55 -38 76 -41 47 -105 158 -145 251 -17 41
-39 89 -47 105 -9 17 -37 73 -63 125 -26 52 -62 107 -79 123 -29 26 -31 31
-31 98 0 71 -12 107 -51 158 -13 16 -19 40 -19 76 0 38 -8 68 -30 111 -30 60
-50 138 -50 201 0 18 -11 56 -26 84 -20 40 -24 59 -19 93 5 32 -1 67 -23 142
-58 192 -62 209 -55 247 6 37 2 59 -34 220 -24 110 -36 188 -38 247 -1 30 -7
72 -14 93 -12 36 -25 237 -20 322 4 63 2 135 -6 205 -4 36 -7 128 -6 205 0 77
-4 156 -9 176 -8 27 -6 54 5 101 11 51 12 77 4 129 -8 48 -7 77 2 118 10 42
10 68 1 123 -7 38 -9 75 -5 81 3 6 10 87 14 181 5 126 12 191 28 245 17 62 19
81 10 117 -8 32 -8 52 1 76 6 18 16 85 20 149 9 110 24 194 55 305 9 28 12 65
9 81 -4 20 1 46 14 76 11 24 23 69 27 98 4 30 14 71 21 93 8 21 14 56 14 77 0
21 5 50 11 66 23 60 50 174 74 318 16 97 34 166 49 195 13 25 26 74 30 109 4
35 16 87 26 115 10 28 20 68 23 89 3 21 26 84 51 140 25 56 48 116 52 132 8
32 64 186 121 330 20 50 60 135 89 191 30 55 62 125 73 155 10 30 29 75 41 99
13 25 30 72 40 105 9 33 26 78 37 100 19 38 57 111 91 180 8 17 29 57 45 90
16 33 41 74 53 92 13 17 24 36 24 40 0 5 29 52 64 105 35 52 66 106 69 119 4
13 31 56 61 94 30 39 83 119 118 179 34 60 97 148 139 195 42 48 84 102 94
121 10 19 48 78 84 130 59 84 131 171 443 530 89 103 256 276 412 428 55 54
165 162 245 242 168 166 346 327 463 418 45 34 104 84 132 110 44 41 216 179
295 236 14 11 46 38 71 61 25 23 65 57 90 75 25 19 72 58 104 87 33 29 64 53
69 53 16 0 180 123 247 186 36 34 87 71 114 83 28 12 65 33 83 47 18 14 67 41
109 60 42 19 95 47 117 63 23 16 87 52 142 80 55 28 107 55 115 61 34 22 330
153 395 175 39 13 91 33 115 44 25 11 53 21 63 21 10 0 38 13 61 29 24 17 56
33 72 37 16 4 46 15 66 25 21 11 56 19 79 19 30 0 50 7 65 21 l23 21 -6 -58
c-4 -43 -19 -84 -55 -154 -27 -52 -54 -100 -60 -108 -9 -10 -7 -20 6 -42 16
-28 16 -31 -2 -72 -11 -24 -22 -60 -26 -80 -4 -21 -18 -51 -31 -67 -14 -16
-25 -36 -25 -45 0 -10 -16 -47 -35 -83 -27 -51 -35 -78 -35 -118 0 -39 -5 -56
-20 -70 -27 -25 -50 -106 -50 -177 0 -51 -3 -59 -26 -75 -25 -16 -26 -20 -20
-72 6 -51 4 -57 -24 -93 l-31 -38 18 -56 18 -57 -24 -16 c-13 -9 -34 -26 -47
-38 -24 -22 -24 -23 -8 -63 l17 -42 -36 -70 -37 -71 20 -27 c18 -25 18 -28 2
-44 -13 -13 -16 -32 -14 -94 2 -69 0 -81 -23 -111 -31 -43 -31 -55 0 -75 33
-22 32 -33 -10 -109 -29 -54 -35 -74 -35 -126 0 -37 -6 -74 -16 -93 -12 -23
-14 -45 -10 -82 6 -45 4 -55 -14 -71 -21 -19 -27 -50 -10 -60 16 -10 12 -39
-16 -100 l-27 -58 23 -42 c21 -38 21 -43 7 -71 -24 -48 -30 -91 -16 -129 12
-31 10 -43 -11 -105 -23 -67 -23 -70 -7 -105 21 -45 22 -94 1 -161 -16 -47
-16 -55 -1 -91 13 -34 13 -43 1 -72 -17 -40 -18 -75 -3 -103 9 -16 6 -34 -11
-84 -21 -62 -21 -66 -5 -109 17 -42 16 -70 -1 -138 -5 -22 -1 -34 17 -53 22
-23 22 -25 6 -58 -16 -34 -16 -35 14 -72 27 -34 28 -39 14 -58 -41 -56 -41
-65 -8 -127 28 -51 30 -61 20 -88 -10 -28 -9 -33 17 -60 26 -27 28 -34 22 -75
-7 -46 3 -81 31 -101 11 -8 14 -29 11 -80 l-3 -69 43 -24 c44 -25 54 -50 27
-72 -8 -7 -15 -16 -15 -21 0 -16 50 -54 78 -59 24 -5 28 -11 37 -67 6 -40 18
-70 33 -85 12 -14 22 -29 22 -35 0 -6 18 -30 39 -52 26 -27 41 -52 43 -74 2
-27 8 -33 30 -35 21 -3 30 -10 34 -30 8 -31 69 -100 101 -112 12 -5 31 -29 41
-54 13 -28 35 -54 59 -70 38 -26 103 -96 138 -149 10 -15 37 -39 60 -53 26
-15 45 -35 49 -49 4 -14 19 -31 35 -40 16 -8 39 -28 51 -45 12 -16 41 -42 66
-56 35 -21 44 -31 44 -53 0 -40 47 -75 141 -104 12 -4 15 -13 11 -33 -6 -32
20 -56 53 -48 24 6 75 -37 99 -84 10 -19 33 -37 64 -50 30 -13 69 -42 98 -75
27 -29 76 -71 109 -94 33 -22 71 -53 85 -68 14 -15 52 -45 85 -68 33 -22 71
-50 85 -62 14 -12 67 -51 118 -86 50 -35 110 -76 131 -92 22 -15 65 -41 96
-57 31 -16 68 -39 82 -50 14 -11 51 -32 82 -46 31 -15 70 -37 87 -50 17 -13
35 -24 40 -24 5 0 25 -11 44 -24 19 -12 52 -29 73 -35 21 -7 50 -23 65 -36 15
-12 68 -43 117 -69 114 -59 183 -102 215 -131 27 -24 80 -45 115 -45 12 0 30
-9 39 -19 10 -11 32 -25 49 -31 18 -7 69 -30 113 -52 45 -21 103 -43 130 -47
69 -12 97 -25 143 -66 38 -35 42 -36 105 -33 65 2 66 2 96 -34 27 -33 35 -36
92 -40 43 -3 97 -18 167 -47 89 -35 109 -40 134 -32 25 9 39 6 95 -23 37 -19
94 -39 127 -46 33 -6 77 -18 97 -25 20 -8 66 -19 102 -25 36 -6 85 -19 111
-30 25 -11 88 -26 140 -35 53 -8 112 -24 133 -35 27 -15 47 -19 77 -14 26 3
55 0 80 -9 22 -9 76 -18 120 -20 57 -4 98 -13 143 -33 60 -26 66 -26 116 -14
48 11 59 11 117 -10 62 -21 146 -34 311 -47 59 -4 87 -2 119 11 39 16 43 16
76 -4 29 -17 52 -20 146 -21 62 0 137 -4 167 -8 30 -5 96 -4 145 1 50 5 227
11 395 12 290 2 308 4 374 26 61 21 73 22 114 11 41 -11 52 -9 116 13 39 14
84 27 99 31 38 8 29 27 -19 42 -69 21 -172 43 -197 43 -13 0 -44 13 -68 30
-51 34 -92 38 -163 14 -46 -16 -47 -16 -88 11 -31 21 -49 26 -75 22 -18 -3
-66 1 -106 10 -40 8 -143 17 -232 20 -88 2 -178 6 -200 8 -22 2 -71 6 -110 9
-38 4 -104 14 -145 22 -72 15 -77 15 -133 -4 -47 -17 -64 -19 -85 -10 -15 6
-70 14 -122 19 -141 11 -227 26 -300 50 -36 11 -90 22 -120 24 -133 6 -228 19
-272 36 -26 10 -54 16 -63 13 -8 -4 -43 1 -78 9 -136 33 -169 39 -194 33 -18
-5 -36 0 -64 18 -27 18 -50 25 -78 24 -27 -1 -57 8 -93 27 -29 16 -75 31 -103
35 -97 14 -356 89 -455 133 -48 21 -60 25 -241 80 -64 20 -156 55 -205 78 -49
23 -110 48 -136 55 -26 8 -72 28 -103 44 -32 17 -63 30 -71 30 -8 0 -31 11
-52 24 -20 13 -68 37 -107 52 -38 15 -90 40 -115 55 -25 16 -63 38 -85 50 -22
12 -51 30 -64 40 -13 11 -41 24 -62 29 -22 6 -54 24 -72 39 -17 16 -70 47
-117 70 -47 24 -96 53 -110 66 -42 38 -159 104 -198 111 -20 3 -50 19 -67 35
-16 15 -48 36 -70 46 -23 10 -61 34 -85 54 -25 20 -61 44 -80 54 -51 26 -126
81 -201 150 -36 33 -94 80 -128 104 -35 25 -70 55 -78 68 -8 12 -43 43 -77 67
-33 24 -70 54 -81 66 -11 12 -49 41 -85 64 -36 24 -105 80 -154 125 -49 46
-120 108 -157 138 -38 30 -84 76 -102 102 -19 26 -50 55 -69 64 -41 19 -56 35
-84 91 -13 25 -35 49 -59 63 -28 15 -47 38 -67 77 -16 33 -48 72 -79 98 -28
23 -59 57 -68 74 -32 63 -101 153 -133 175 -46 31 -68 60 -68 90 0 14 -13 46
-29 71 -16 25 -32 60 -36 79 -4 19 -23 63 -41 98 -19 35 -34 79 -34 96 0 18
-6 48 -14 66 -9 21 -12 52 -9 80 4 35 0 56 -18 90 -19 37 -23 63 -26 169 -2
69 -11 152 -19 185 -12 47 -14 89 -8 192 4 89 2 153 -6 196 -9 49 -9 75 1 118
6 30 11 104 10 166 -2 71 2 126 10 150 7 21 14 83 15 138 4 220 18 358 41 406
19 40 21 54 13 103 -7 47 -6 65 11 113 12 32 22 81 24 108 9 122 27 244 42
295 12 36 18 94 19 170 1 94 7 130 28 195 14 44 26 87 26 97 0 9 9 37 20 63
11 26 20 57 20 70 0 37 36 175 58 225 11 25 23 81 27 125 5 55 17 100 36 143
16 35 41 110 55 165 15 56 37 123 50 149 13 26 24 63 24 83 0 19 9 61 20 92
11 31 23 80 26 107 4 28 22 89 41 136 27 65 37 108 44 182 5 57 16 117 28 145
11 26 22 78 24 116 3 53 9 72 27 92 18 19 22 31 17 61 -3 20 -3 72 0 115 6 73
8 79 28 79 50 0 111 -78 99 -126 -6 -22 2 -34 57 -85 35 -32 66 -59 70 -59 3
0 18 -22 33 -50 15 -27 37 -56 49 -65 30 -21 74 -19 87 4 14 27 13 88 -2 114
-8 13 -13 59 -13 114 0 80 -3 95 -23 123 -13 17 -30 52 -37 78 -9 28 -32 67
-59 96 -35 39 -45 59 -50 98 -4 28 -18 78 -31 111 -13 34 -29 81 -36 104 -6
24 -29 66 -51 94 -21 28 -38 60 -38 71 0 24 -24 70 -45 88 -22 19 -55 84 -55
111 0 12 -11 42 -24 68 -14 25 -30 63 -36 84 -7 21 -28 59 -47 84 -41 53 -164
290 -188 360 -9 26 -36 82 -60 124 -23 43 -51 101 -60 131 -10 29 -34 71 -55
94 -33 36 -38 48 -38 90 0 37 -10 70 -41 133 -23 49 -41 100 -41 119 0 19 -9
47 -21 63 -11 16 -24 50 -29 76 -4 27 -24 84 -43 127 -20 44 -43 113 -52 155
-9 42 -22 91 -30 109 -8 18 -15 51 -15 73 0 22 -9 57 -19 77 -25 48 -51 149
-51 195 0 19 -7 54 -16 78 -9 24 -16 71 -16 104 0 33 -6 76 -13 95 -41 107
-46 157 -31 330 14 171 19 188 82 330 88 200 266 371 437 420 35 9 76 24 93
33 33 17 187 57 219 57 11 0 39 10 60 21 41 22 33 21 380 30 46 1 262 -31 332
-50 79 -21 289 -70 324 -76 19 -3 51 -16 69 -30 38 -28 89 -45 136 -45 16 0
34 -4 40 -9 5 -5 48 -23 96 -40 48 -17 102 -38 120 -47 18 -10 45 -17 60 -16
29 2 151 -54 205 -94 20 -16 45 -24 70 -24 25 0 53 -10 83 -30 25 -16 50 -30
56 -30 6 0 19 -9 28 -19 10 -10 38 -24 64 -31 26 -6 56 -19 67 -29 11 -10 40
-23 65 -30 25 -7 58 -24 73 -37 16 -13 34 -24 40 -24 19 0 341 -162 367 -185
14 -12 45 -34 70 -49 25 -15 69 -45 99 -66 30 -22 63 -40 73 -40 27 0 96 -46
149 -99 25 -25 69 -59 98 -76 29 -16 74 -42 100 -57 25 -16 70 -35 98 -44 29
-8 55 -20 58 -25 4 -5 19 -9 35 -9 16 0 32 -4 35 -10 3 -5 15 -10 25 -10 11 0
34 -13 52 -29 46 -39 71 -51 96 -44 20 5 22 12 22 84 0 70 -11 144 -29 190 -8
23 -158 137 -235 179 -159 86 -186 104 -192 122 -10 32 4 62 40 85 18 12 46
39 61 60 16 21 51 57 79 80 28 23 78 65 111 93 132 111 376 290 395 290 5 0
34 20 67 43 120 90 192 138 328 221 77 47 178 113 225 146 47 33 103 65 125
71 22 6 47 17 55 25 9 7 40 25 70 39 30 14 87 49 127 78 125 90 214 143 358
212 313 150 357 169 461 200 49 15 100 33 114 40 51 26 137 57 209 76 41 11
111 33 155 49 186 66 277 91 349 96 33 3 87 16 120 30 69 28 162 32 193 10 19
-14 19 -15 1 -46 -18 -31 -18 -31 7 -81 15 -27 29 -71 32 -97 9 -71 27 -94 72
-90 34 3 40 8 69 63 17 33 32 67 32 75 1 9 19 50 40 92 21 42 42 95 46 119 6
37 66 278 95 384 16 58 34 100 62 144 17 27 28 59 28 80 1 20 7 52 15 71 52
135 86 206 133 279 38 60 58 103 67 148 7 34 24 80 37 100 28 46 78 171 78
196 0 10 9 35 20 57 11 21 29 65 41 97 12 32 36 90 54 128 17 39 37 86 44 105
24 73 259 526 305 587 17 24 51 73 76 109 25 37 70 95 100 129 30 34 93 106
140 160 130 148 281 266 400 310 89 33 253 39 395 15z m-9195 -8584 c6 -8 10
-25 8 -38 -4 -32 -42 -32 -46 0 -7 46 14 66 38 38z m-7654 -1427 c56 1 94 -3
119 -13 21 -9 64 -16 96 -16 32 0 70 -5 86 -11 15 -6 47 -11 71 -10 25 0 59
-8 80 -19 20 -11 56 -20 80 -20 26 0 74 -13 119 -31 41 -18 96 -33 121 -34 26
-2 65 -13 87 -24 21 -12 47 -21 56 -21 10 0 37 -8 61 -19 24 -10 59 -22 77
-26 18 -4 88 -34 156 -66 67 -32 126 -59 131 -59 5 -1 25 -14 44 -30 23 -20
45 -30 67 -30 19 0 52 -13 80 -30 26 -16 52 -30 59 -30 6 0 23 -9 37 -20 13
-11 49 -32 78 -46 30 -15 88 -50 129 -78 41 -27 98 -58 125 -67 32 -11 51 -24
54 -36 4 -25 31 -53 49 -53 9 0 26 -10 40 -22 13 -13 54 -41 90 -63 39 -23 72
-52 80 -68 7 -15 30 -36 50 -46 20 -11 68 -46 106 -80 39 -33 81 -63 95 -66
30 -7 81 -53 81 -72 0 -21 38 -53 64 -53 17 0 27 -9 36 -30 7 -16 22 -35 34
-43 56 -38 143 -124 161 -160 15 -31 33 -47 75 -68 32 -16 62 -40 71 -56 8
-15 41 -45 72 -66 47 -32 57 -43 57 -67 0 -19 7 -33 20 -40 16 -8 20 -21 20
-59 0 -46 -2 -51 -42 -80 -68 -48 -70 -50 -63 -82 8 -36 -8 -59 -40 -59 -23 0
-45 -22 -135 -134 -25 -31 -62 -77 -82 -102 -21 -25 -38 -50 -38 -55 0 -6 -31
-43 -70 -84 -56 -59 -70 -80 -70 -105 0 -24 -7 -35 -33 -50 -19 -11 -43 -37
-53 -58 -10 -20 -33 -55 -50 -77 -69 -89 -96 -139 -87 -154 8 -12 -1 -26 -39
-60 -27 -24 -61 -67 -75 -95 -14 -28 -32 -59 -40 -68 -8 -9 -16 -31 -17 -48
-1 -18 -10 -36 -19 -42 -31 -17 -66 -62 -73 -93 -4 -16 -20 -49 -36 -73 -16
-23 -41 -68 -55 -100 -13 -31 -33 -66 -43 -77 -22 -24 -27 -50 -17 -89 10 -34
-14 -76 -43 -76 -23 0 -50 -36 -50 -66 0 -11 -13 -39 -29 -61 -16 -22 -36 -66
-46 -99 -9 -32 -20 -63 -25 -69 -4 -5 -13 -35 -20 -65 -13 -56 -73 -190 -110
-245 -11 -16 -20 -43 -20 -59 0 -25 -17 -64 -74 -171 -9 -16 -16 -37 -16 -46
0 -9 -11 -38 -26 -64 -14 -26 -31 -71 -39 -99 -24 -89 -32 -110 -59 -156 -14
-25 -26 -53 -26 -63 0 -10 -9 -43 -20 -74 -11 -32 -20 -83 -20 -116 0 -42 -6
-69 -22 -97 -20 -34 -21 -41 -8 -64 12 -23 11 -28 -7 -49 -35 -38 -56 -110
-48 -163 6 -41 4 -49 -20 -74 -22 -23 -27 -38 -29 -89 -2 -34 -7 -66 -12 -70
-23 -22 -52 -20 -88 4 -20 14 -50 32 -67 41 -33 17 -209 187 -209 203 0 5 -15
18 -34 29 -20 12 -36 31 -40 48 -4 16 -30 61 -57 101 -27 40 -49 76 -49 79 0
14 -82 169 -100 189 -27 30 -47 75 -80 177 -16 50 -42 108 -58 128 -72 93 -85
118 -80 162 3 27 19 64 42 97 20 29 36 58 36 65 0 7 8 30 19 52 10 21 26 64
36 94 27 85 71 209 95 270 12 30 29 75 38 100 8 25 25 65 37 90 13 25 28 70
35 100 6 30 16 69 22 85 6 17 17 57 25 90 8 33 25 94 39 136 13 42 26 98 29
125 5 45 21 135 46 259 11 51 16 246 11 387 -2 43 -12 101 -23 132 -11 32 -18
78 -18 109 2 69 -21 116 -78 163 -27 22 -54 57 -67 85 -21 47 -95 119 -122
119 -8 0 -19 -11 -26 -25 -9 -19 -7 -34 7 -72 16 -41 18 -77 17 -268 -1 -121
-2 -229 -2 -240 -1 -11 2 -46 6 -78 5 -47 3 -64 -12 -92 -17 -33 -17 -36 -1
-82 23 -64 22 -80 -8 -115 -29 -34 -29 -38 -13 -106 11 -49 10 -52 -21 -99
-22 -33 -31 -56 -28 -73 3 -14 8 -41 12 -61 6 -32 2 -43 -39 -102 -41 -58 -46
-71 -45 -116 1 -37 -4 -57 -17 -72 -18 -20 -18 -21 -1 -34 27 -20 20 -48 -23
-90 -38 -37 -58 -85 -52 -126 2 -8 -18 -54 -42 -101 -29 -55 -47 -105 -52
-139 -8 -66 -29 -133 -55 -175 -10 -17 -19 -38 -19 -45 0 -15 -52 -119 -80
-159 -10 -14 -31 -58 -48 -98 -33 -76 -61 -109 -254 -301 -53 -53 -117 -111
-143 -129 -31 -23 -48 -43 -52 -63 -6 -34 -18 -44 -52 -44 -16 0 -29 -9 -40
-28 -18 -33 -135 -100 -347 -198 -34 -16 -67 -29 -73 -29 -7 0 -33 -12 -59
-27 -33 -20 -62 -28 -99 -29 -35 -1 -69 -11 -103 -28 -36 -19 -65 -26 -104
-26 -29 0 -72 -6 -94 -14 -24 -9 -101 -18 -179 -21 -76 -4 -160 -11 -188 -16
-31 -6 -81 -5 -132 0 -44 6 -150 13 -235 16 -125 5 -165 10 -218 30 -36 13
-103 33 -150 45 -47 12 -121 39 -166 61 -44 21 -90 39 -101 39 -28 0 -83 24
-130 56 -21 14 -67 39 -103 55 -36 17 -85 49 -110 73 -25 24 -65 54 -90 66
-100 50 -236 173 -305 274 -30 46 -66 93 -80 106 -14 13 -25 30 -25 37 0 20
-38 93 -71 134 -15 19 -31 48 -35 65 -4 16 -15 46 -25 66 -11 21 -19 53 -19
73 0 40 -19 82 -61 136 -26 32 -30 50 -43 166 -10 94 -20 138 -35 165 -19 32
-22 52 -23 189 0 85 -5 167 -9 184 -6 18 -5 52 2 86 9 47 8 61 -6 88 -14 28
-14 38 -4 69 9 24 12 81 10 162 -2 107 2 141 24 233 15 60 35 123 46 140 10
18 19 49 19 70 0 21 12 62 29 95 15 31 32 68 36 82 15 52 144 288 181 330 7 9
30 54 51 101 21 46 53 102 70 124 36 44 115 152 169 230 33 47 84 112 215 272
31 37 78 86 105 108 66 54 294 258 425 380 105 98 198 176 292 245 26 19 72
53 102 75 147 109 271 187 370 235 172 81 191 91 215 105 45 26 184 87 250
110 36 13 88 32 115 44 28 11 88 29 135 41 47 12 101 27 120 33 60 19 330 49
552 62 64 4 132 11 150 16 18 4 56 5 83 2 28 -4 87 -6 131 -4z m6692 -12839
c24 -11 61 -35 83 -54 22 -19 59 -39 82 -45 24 -5 55 -23 71 -40 18 -19 46
-34 80 -42 28 -6 70 -23 93 -36 47 -27 139 -63 163 -63 16 0 175 -78 212 -104
12 -9 35 -16 49 -16 15 0 61 -18 103 -40 41 -22 89 -40 105 -40 17 0 61 -12
98 -26 37 -14 101 -34 141 -44 41 -11 108 -34 150 -53 87 -39 161 -65 212 -76
19 -4 68 -20 108 -34 40 -15 86 -27 102 -27 16 0 61 -13 102 -29 40 -16 102
-32 138 -36 36 -4 87 -13 114 -21 27 -8 77 -14 111 -14 38 0 68 -5 81 -15 11
-8 41 -14 73 -15 55 0 185 -33 210 -53 10 -8 11 -26 7 -68 -6 -48 -3 -67 19
-118 14 -33 25 -71 25 -84 0 -13 7 -32 15 -43 17 -23 19 -58 4 -86 -18 -33 -3
-65 36 -78 44 -14 51 -39 29 -99 -15 -43 -16 -55 -4 -95 7 -26 17 -49 21 -52
5 -3 9 -14 9 -25 0 -28 -31 -24 -90 12 -55 34 -70 33 -96 -6 -19 -29 -21 -20
37 -125 10 -19 19 -51 19 -70 1 -23 11 -49 30 -75 30 -41 46 -64 88 -127 21
-33 23 -41 13 -69 -10 -30 -9 -34 23 -64 31 -28 34 -35 29 -73 -4 -32 -1 -46
16 -68 11 -15 21 -41 21 -59 0 -27 -10 -40 -57 -82 -32 -27 -68 -55 -80 -61
-12 -7 -45 -34 -73 -61 -86 -83 -165 -106 -188 -56 -7 14 -12 35 -12 46 0 11
-12 41 -26 65 -23 38 -25 49 -15 70 17 38 13 64 -14 104 -14 20 -28 58 -31 85
-8 57 -44 136 -84 182 -19 21 -30 48 -35 82 -4 34 -17 64 -38 92 -55 72 -85
123 -86 145 -2 41 -69 84 -134 84 -10 0 -35 18 -57 40 -22 22 -49 40 -60 40
-28 0 -73 -46 -67 -68 30 -100 60 -159 123 -246 17 -23 34 -55 38 -70 4 -16
21 -45 39 -66 45 -54 58 -98 39 -131 -14 -25 -13 -29 32 -90 26 -35 49 -73 51
-84 10 -54 34 -143 46 -172 11 -26 11 -36 0 -57 -18 -33 -8 -69 34 -115 19
-21 35 -45 35 -53 0 -21 -30 -45 -65 -51 -16 -3 -50 -12 -75 -21 -25 -8 -72
-22 -105 -30 -93 -22 -154 -37 -230 -57 -83 -22 -111 -23 -145 -6 -21 11 -26
22 -32 72 -17 159 -23 184 -55 218 -22 23 -38 55 -54 112 -14 52 -30 87 -45
100 -15 13 -27 39 -34 73 -7 41 -18 60 -50 91 -32 31 -40 45 -40 75 0 30 -5
40 -32 56 -18 11 -40 20 -49 20 -8 0 -30 19 -47 43 -73 99 -107 121 -153 97
-25 -14 -25 -60 0 -91 25 -33 61 -105 61 -124 0 -9 11 -38 25 -65 14 -27 25
-61 25 -75 0 -17 14 -39 40 -65 28 -28 40 -48 40 -68 0 -16 11 -49 23 -73 13
-24 30 -62 37 -84 7 -22 26 -66 42 -98 24 -49 28 -68 26 -120 l-3 -62 -60 -3
c-54 -3 -70 2 -195 59 -74 34 -155 70 -180 82 -25 11 -59 31 -77 44 -18 13
-51 32 -75 43 -44 20 -87 51 -191 137 -120 99 -134 113 -145 150 -7 21 -39 70
-72 108 -33 39 -60 75 -60 80 0 6 -16 34 -35 62 -19 29 -44 75 -55 102 -11 28
-33 69 -50 93 -17 23 -37 67 -46 97 -25 90 -83 219 -120 268 -19 24 -34 56
-34 70 0 14 -10 39 -22 55 -12 17 -22 47 -24 67 -1 20 -2 43 -3 51 -1 8 -17
33 -36 55 -20 21 -56 81 -81 132 -27 54 -69 118 -100 153 -37 42 -54 69 -54
88 0 28 -6 38 -101 163 -65 84 -91 110 -136 133 -19 10 -39 30 -47 49 -20 50
-75 107 -121 127 -47 20 -75 62 -58 88 5 9 37 24 70 33 33 8 73 25 90 37 17
12 77 43 134 68 57 26 111 52 119 59 8 7 60 38 115 70 55 31 115 68 134 81 41
29 44 29 99 4z m15772 -869 c6 -24 30 -59 64 -94 36 -38 56 -68 60 -92 5 -27
17 -41 47 -61 22 -13 45 -36 51 -49 6 -14 31 -34 55 -46 29 -14 43 -27 43 -41
0 -27 45 -83 86 -107 19 -11 38 -31 43 -43 15 -37 113 -130 148 -140 17 -5 58
-28 90 -52 32 -24 78 -54 102 -67 24 -13 78 -43 120 -66 42 -23 105 -56 141
-73 36 -18 83 -40 105 -51 22 -10 66 -41 98 -69 32 -27 67 -50 77 -50 11 0 24
-9 30 -21 10 -18 62 -72 132 -135 13 -11 37 -37 54 -58 26 -30 37 -36 57 -31
20 5 28 2 37 -14 6 -12 8 -31 5 -41 -4 -14 4 -33 28 -62 43 -55 73 -106 81
-140 3 -15 19 -35 34 -45 53 -33 68 -76 36 -107 -25 -25 -49 -19 -99 24 -25
22 -52 40 -60 40 -7 0 -23 12 -35 27 -35 45 -51 50 -161 58 -100 7 -108 6
-128 -14 -42 -42 -30 -71 75 -175 65 -64 104 -96 122 -98 23 -2 27 -8 27 -33
0 -41 11 -55 45 -55 16 0 32 -5 35 -10 11 -17 141 -100 157 -100 23 0 41 -27
35 -52 -5 -17 2 -30 28 -54 38 -34 38 -35 37 -170 0 -70 -3 -85 -26 -118 -14
-22 -26 -46 -26 -55 0 -23 -24 -56 -118 -165 -66 -75 -89 -96 -110 -96 -44 0
-62 26 -62 90 0 64 -7 75 -70 117 -73 50 -84 66 -84 133 -1 56 -3 61 -46 105
-25 25 -61 53 -81 62 -38 17 -69 57 -69 92 0 25 -28 41 -73 41 -19 0 -59 11
-89 25 -67 31 -93 31 -113 1 -22 -32 -9 -59 60 -126 60 -59 105 -126 105 -157
0 -11 14 -32 30 -48 17 -16 34 -43 38 -59 6 -22 16 -32 39 -38 27 -7 34 -16
51 -67 11 -32 34 -77 51 -101 17 -24 31 -55 31 -70 0 -15 20 -57 45 -96 59
-90 59 -113 -2 -152 -27 -16 -66 -35 -88 -42 -22 -7 -66 -26 -97 -41 -92 -46
-105 -42 -188 54 -40 45 -81 99 -91 119 -11 21 -32 44 -49 53 -18 9 -37 32
-50 62 -20 46 -58 86 -220 233 -46 41 -107 99 -137 128 -39 37 -61 52 -81 52
-16 0 -37 7 -48 15 -10 8 -34 15 -52 15 -25 0 -35 -6 -44 -25 -10 -22 -7 -31
19 -68 33 -45 93 -166 93 -186 0 -6 22 -32 49 -57 28 -26 53 -58 56 -74 8 -35
25 -51 68 -59 25 -5 37 -16 53 -48 12 -23 46 -70 76 -105 53 -60 88 -115 88
-138 0 -5 -8 -10 -19 -10 -10 0 -35 -7 -55 -15 -31 -13 -40 -13 -73 -1 -21 8
-76 17 -123 21 -47 4 -121 13 -165 20 -44 7 -125 18 -180 25 -55 6 -113 16
-130 22 -16 6 -59 14 -95 19 -69 9 -229 60 -268 85 -13 9 -45 22 -71 30 -27 8
-63 24 -82 37 -19 12 -50 29 -69 36 -52 21 -164 91 -320 201 -74 52 -223 202
-270 270 -21 30 -65 86 -99 124 -33 38 -61 72 -61 77 0 4 -12 21 -26 38 -14
17 -37 52 -51 78 -14 26 -42 67 -64 90 -21 23 -41 54 -45 70 -4 15 -22 44 -40
63 -19 20 -40 58 -49 85 -8 28 -42 91 -75 140 -33 50 -62 104 -66 121 -3 19
-24 49 -50 75 -65 64 -59 110 18 144 24 11 80 43 125 72 46 29 85 53 88 53 5
0 27 15 180 118 39 25 88 54 110 63 85 34 394 250 578 404 72 60 413 399 563
559 62 66 86 86 107 86 22 0 28 -6 37 -39z"/>
<path d="M26215 30953 c-16 -8 -41 -26 -55 -38 -14 -13 -35 -26 -48 -30 -13
-4 -46 -27 -73 -51 -27 -24 -56 -44 -65 -44 -8 0 -34 -20 -57 -44 -37 -38
-118 -86 -144 -86 -5 0 -26 -17 -47 -39 -24 -25 -50 -41 -73 -44 -20 -4 -51
-21 -74 -41 -21 -20 -49 -36 -62 -36 -12 0 -37 -13 -55 -30 -18 -16 -47 -33
-65 -38 -17 -5 -49 -21 -70 -35 -21 -14 -52 -29 -70 -32 -18 -4 -41 -15 -52
-25 -30 -27 -191 -128 -228 -144 -18 -7 -54 -27 -81 -45 -28 -17 -56 -31 -63
-31 -7 0 -34 -13 -60 -29 -77 -47 -178 -84 -459 -170 -39 -12 -79 -30 -89 -41
-10 -11 -21 -45 -25 -82 -4 -35 -14 -78 -21 -96 -12 -28 -12 -37 1 -60 14 -24
22 -27 76 -30 97 -5 284 45 384 102 25 14 61 26 80 26 21 0 50 10 72 25 20 14
42 25 48 25 14 0 134 61 237 121 45 26 106 58 135 71 29 12 73 34 98 50 47 28
55 33 330 187 213 120 279 159 313 188 16 13 35 23 42 23 7 0 35 17 62 39 27
21 63 46 79 54 16 9 65 45 109 81 44 36 104 85 133 108 62 50 125 153 120 196
-5 43 -55 62 -163 62 -62 -1 -99 -6 -120 -17z"/>
<path d="M20537 28030 c-38 -17 -75 -30 -83 -30 -17 0 -112 -47 -206 -101 -37
-22 -87 -44 -110 -49 -24 -5 -81 -23 -128 -40 -47 -18 -130 -47 -185 -66 -55
-19 -113 -41 -130 -48 -39 -18 -107 -36 -170 -45 -27 -4 -61 -13 -74 -20 -13
-7 -52 -19 -86 -26 -35 -8 -86 -25 -113 -39 -28 -14 -58 -26 -66 -26 -8 0 -54
-13 -103 -30 -48 -16 -100 -30 -116 -30 -15 0 -45 -9 -67 -20 -22 -11 -49 -20
-60 -20 -12 0 -55 -16 -95 -35 -61 -30 -80 -34 -114 -29 -31 5 -47 2 -74 -15
-19 -11 -51 -21 -70 -21 -20 0 -54 -6 -74 -14 -21 -8 -54 -17 -72 -20 -19 -4
-46 -14 -60 -24 -15 -9 -39 -21 -56 -27 -31 -10 -36 -24 -51 -140 -5 -38 -3
-44 40 -83 25 -23 51 -42 58 -42 22 0 192 38 219 48 40 16 149 41 201 46 26 2
66 13 90 23 24 11 79 27 123 37 44 10 103 29 130 42 28 13 64 24 80 24 30 0
447 136 515 167 19 9 55 17 80 18 25 1 65 8 90 17 25 9 83 28 130 43 47 15
105 38 130 50 41 20 68 31 170 66 19 6 60 22 90 35 30 13 66 26 79 30 14 4 45
19 70 34 26 15 84 42 131 60 96 38 182 96 211 143 25 42 25 108 -1 132 -21 19
-139 54 -180 54 -14 0 -56 -13 -93 -29z"/>
<path d="M24000 27531 c-14 -4 -80 -11 -147 -14 -97 -5 -129 -11 -155 -27 -20
-12 -51 -20 -79 -20 -32 0 -64 -9 -105 -31 -32 -17 -114 -53 -183 -79 -70 -26
-148 -60 -176 -74 -27 -15 -74 -34 -105 -43 -30 -9 -68 -26 -85 -39 -16 -12
-59 -33 -95 -47 -36 -13 -87 -38 -114 -56 -28 -17 -59 -31 -70 -31 -12 0 -41
-14 -65 -30 -24 -17 -54 -30 -66 -30 -12 0 -41 -15 -65 -32 -24 -18 -60 -45
-79 -60 -20 -15 -56 -38 -81 -52 -25 -13 -75 -47 -112 -75 -38 -27 -78 -55
-90 -62 -13 -6 -43 -31 -68 -55 -25 -24 -83 -78 -130 -120 -80 -71 -130 -138
-130 -174 0 -9 -16 -40 -35 -70 -39 -63 -44 -102 -15 -145 13 -20 20 -48 21
-85 0 -46 6 -63 33 -100 18 -25 46 -49 62 -55 15 -5 40 -22 54 -37 26 -29 168
-110 235 -134 21 -8 60 -28 86 -45 28 -17 70 -34 104 -39 31 -5 64 -15 72 -21
8 -7 33 -16 56 -20 47 -8 114 -30 200 -67 32 -13 68 -21 79 -18 12 3 37 -2 57
-11 20 -9 61 -19 91 -23 69 -9 179 -26 291 -46 47 -8 93 -12 101 -9 18 7 68
-15 87 -39 9 -10 30 -16 58 -16 57 0 133 -19 156 -38 23 -21 52 -87 68 -157
10 -43 10 -67 1 -106 -7 -28 -12 -65 -12 -82 0 -18 -14 -61 -30 -95 -17 -35
-30 -69 -30 -75 -1 -29 -215 -207 -248 -207 -5 0 -27 -16 -49 -35 -23 -19 -55
-38 -72 -41 -17 -4 -50 -23 -74 -43 -23 -20 -73 -52 -110 -70 -38 -18 -83 -45
-100 -60 -18 -16 -48 -33 -67 -40 -19 -6 -46 -22 -60 -36 -14 -13 -43 -30 -65
-38 -64 -24 -202 -85 -310 -137 -55 -27 -113 -52 -130 -56 -16 -4 -54 -20 -84
-35 -30 -16 -62 -29 -72 -29 -10 0 -49 -12 -86 -26 -38 -14 -95 -28 -128 -30
-327 -24 -461 1 -609 115 -77 59 -196 178 -257 260 -40 52 -49 71 -49 105 0
32 -8 51 -35 85 -30 38 -35 51 -35 100 -1 31 -7 67 -15 81 -8 14 -14 35 -15
47 0 13 -16 70 -35 127 -20 60 -35 125 -35 151 0 39 -5 52 -30 75 -27 25 -30
34 -29 79 2 36 -3 56 -15 70 -13 15 -16 28 -11 51 6 27 2 37 -23 63 -16 18
-42 51 -56 75 -21 33 -32 43 -49 40 -18 -2 -22 -10 -24 -43 -1 -22 -6 -80 -11
-130 -8 -82 -7 -93 11 -127 14 -26 18 -47 14 -72 -3 -22 1 -55 10 -82 10 -29
14 -65 11 -102 -5 -53 7 -114 34 -182 6 -14 14 -58 19 -98 4 -41 19 -98 34
-129 17 -39 24 -66 20 -87 -4 -23 3 -50 30 -104 19 -41 35 -82 35 -93 0 -34
31 -83 81 -127 38 -33 49 -50 49 -73 0 -32 20 -56 70 -85 17 -11 40 -36 51
-56 14 -27 28 -40 55 -47 20 -6 68 -31 106 -56 89 -60 173 -94 251 -101 34 -3
81 -12 105 -21 23 -8 50 -12 60 -8 9 4 85 9 167 11 83 1 164 8 180 14 17 7 59
16 95 20 36 5 90 20 120 33 30 13 80 30 110 37 30 7 98 34 150 61 216 110 293
142 344 143 49 1 50 1 77 -49 26 -46 37 -68 60 -120 6 -11 21 -38 34 -60 14
-22 25 -50 25 -62 0 -15 15 -31 50 -52 28 -17 59 -46 70 -64 20 -34 128 -110
171 -120 14 -4 42 -20 62 -36 28 -22 52 -30 101 -36 36 -3 80 -14 98 -23 48
-25 373 -23 473 2 162 40 232 59 268 72 20 8 52 14 71 14 19 0 49 11 70 25 20
14 54 29 74 34 47 12 176 66 216 91 17 10 51 26 76 36 78 31 162 94 276 208
109 109 148 162 255 346 37 64 49 95 49 126 0 22 8 65 18 95 51 147 49 539 -3
694 -15 44 -27 102 -28 129 l-2 48 70 45 c39 24 113 64 165 88 129 61 183 90
260 139 36 23 97 62 135 87 175 110 266 194 346 319 20 30 55 84 77 119 37 56
42 71 42 122 0 31 7 86 16 120 11 41 14 81 10 113 -3 28 -10 103 -16 166 -13
170 -24 208 -85 299 -29 45 -56 93 -59 107 -10 38 -45 81 -76 94 -15 6 -33 23
-39 36 -21 46 -65 93 -93 100 -20 4 -33 16 -42 38 -14 34 -42 46 -104 46 -17
0 -41 14 -67 39 -22 22 -71 56 -110 76 -38 20 -82 43 -96 52 -44 28 -99 0 -82
-42 3 -9 20 -22 37 -29 17 -8 59 -43 93 -77 130 -134 183 -191 183 -199 0 -4
16 -27 35 -50 26 -31 35 -51 35 -79 0 -29 7 -44 35 -71 21 -21 37 -47 41 -69
9 -47 22 -71 39 -71 27 0 45 -29 35 -56 -15 -39 -12 -61 15 -118 19 -41 25
-70 26 -137 2 -114 -13 -237 -34 -277 -24 -44 -118 -172 -126 -172 -4 0 -31
-29 -61 -65 -30 -36 -59 -65 -64 -65 -10 0 -101 -55 -168 -101 -15 -11 -31
-19 -35 -19 -5 0 -31 -15 -58 -34 -28 -18 -61 -37 -75 -41 -23 -7 -114 -50
-165 -77 -11 -6 -59 -30 -107 -54 -47 -24 -89 -48 -93 -54 -4 -6 -36 -24 -73
-40 -36 -17 -88 -48 -116 -69 -47 -35 -191 -111 -212 -111 -5 0 -29 -14 -54
-30 -25 -16 -52 -30 -60 -30 -9 0 -32 -14 -53 -31 -21 -17 -57 -35 -80 -40
-23 -5 -71 -18 -107 -28 -36 -10 -102 -24 -146 -31 -75 -11 -85 -10 -126 7
-25 12 -63 42 -88 72 -25 28 -69 77 -98 109 -65 70 -152 219 -159 271 -4 32 3
55 42 132 26 52 66 119 89 149 25 32 62 102 88 166 25 61 59 129 76 150 34 42
137 245 148 291 4 15 22 62 41 103 19 41 41 108 49 149 8 41 26 99 39 127 24
51 25 60 25 256 l0 204 -29 45 c-39 61 -62 80 -166 133 -72 37 -103 47 -155
51 -36 2 -76 1 -90 -4z"/>
<path d="M27750 20967 c-19 -13 -63 -34 -96 -46 -34 -12 -83 -34 -110 -47 -26
-13 -56 -24 -66 -24 -10 0 -39 -6 -64 -12 -48 -13 -80 -48 -99 -106 -6 -21
-11 -23 -39 -18 -31 6 -52 -1 -171 -54 -11 -4 -42 -17 -70 -26 -27 -10 -68
-29 -90 -41 -22 -13 -54 -23 -70 -23 -35 0 -55 -15 -55 -42 0 -28 -43 -50 -82
-43 -29 5 -37 2 -61 -24 -23 -27 -34 -31 -76 -31 -57 0 -71 -13 -45 -41 23
-26 6 -46 -26 -29 -26 14 -62 7 -151 -31 -40 -17 -86 -29 -112 -29 -31 0 -54
-7 -78 -25 -19 -13 -50 -33 -71 -44 -20 -11 -46 -34 -58 -51 -22 -31 -48 -37
-81 -19 -14 7 -36 7 -75 -1 -48 -10 -56 -15 -68 -45 -11 -26 -23 -36 -53 -44
-21 -6 -45 -11 -53 -11 -8 0 -33 -9 -55 -20 -22 -11 -60 -29 -85 -40 -25 -11
-57 -28 -72 -38 -26 -16 -29 -16 -62 2 -34 18 -34 18 -74 -9 -33 -22 -44 -25
-61 -16 -29 16 -61 14 -61 -4 0 -8 5 -15 10 -15 12 0 13 -27 2 -34 -5 -3 -31
-7 -60 -10 -58 -5 -72 -11 -72 -31 0 -8 -7 -11 -18 -8 -10 2 -72 -12 -137 -31
-64 -20 -131 -36 -147 -36 -61 0 -124 -54 -93 -80 11 -9 43 -11 119 -5 67 4
124 3 159 -5 68 -14 178 6 224 39 23 18 47 23 126 27 78 4 111 11 169 35 40
17 102 37 138 45 36 9 88 26 115 39 113 55 173 78 225 87 30 6 79 21 108 34
29 13 60 24 68 24 9 0 77 30 153 67 89 44 150 67 176 68 26 1 81 22 155 59 63
31 122 56 132 56 9 0 43 15 75 34 32 19 78 40 103 46 24 7 80 37 125 68 44 30
105 64 135 74 30 11 84 37 120 58 36 21 79 42 95 46 18 4 59 36 104 81 41 41
111 108 157 150 88 80 140 145 129 162 -11 19 -69 12 -105 -12z"/>
</g>
</svg>
